<svg width="620" height="216" viewBox="0 0 620 216" fill="none" xmlns="http://www.w3.org/2000/svg">
<path d="M620 207.088H50V215.429H620V207.088Z" fill="#CCCED0"/>
<path fill-rule="evenodd" clip-rule="evenodd" d="M121.428 168.09V169.607V181.93V182.941V184.964V205.25V212.073L123.893 215.421H117.003H106.451H97.2815L99.305 212.073H99.3691V185.47L98.0439 181.809H102.782H101.264H99.4332C98.9915 176.438 94.4386 172.143 89.0022 172.143C83.4376 172.143 78.9489 176.438 78.5071 181.809H76.676H75.0942H79.8965L78.5712 185.47V212.073H78.6354L81.0365 215.421H71.6172H61.4427H54.4887L56.4481 212.073V205.25V184.964V182.941V181.93V169.607V168.09V163.731V163.161L50.6982 158.674H50.5059V158.481V158.232H56.4481V153.873V152.676V151.665V150.967H121.435V151.665V152.676V153.873V158.232H127.442V158.36V158.674H127.128L121.442 163.161V163.731V168.09H121.428Z" fill="#CCCED0"/>
<path fill-rule="evenodd" clip-rule="evenodd" d="M123.266 177.572V184.524V185.094V185.664H123.708V197.288V198.05V202.409V203.164V213.592V214.917V215.423H199.753V214.917V213.592V203.164V202.409V198.05V197.288V185.664H200.573V185.094V184.524V177.572V176.625H199.497V170.114V154.316V153.305V139.152V138.14V109.136H201.014V107.242H197.979V104.4H196.903V103.516H196.59L195.386 101.365L194.124 99.0859L192.92 101.365L191.716 103.516H191.403V104.4H173.448V107.242H170.348V109.136H172.058V138.14V139.152V139.914H164.598L163.394 130.875L163.145 128.475V115.582H165.168V114.001H163.145V112.292H161.435V114.001H159.411V115.582H161.435V128.161L161.057 130.875L159.86 139.914H151.453V139.152V138.14V109.136H152.97V107.242H149.935V104.4H132.365V103.516H132.051L130.847 101.365L129.643 99.0859L128.382 101.365L127.242 103.516H126.864V104.4H125.411V107.242H122.312V109.136H124.014V138.14V139.152V153.305V154.316V170.114V176.625H123.259V177.572H123.266ZM151.46 142.756H159.932V148.062L159.426 148.881L156.519 153.433H151.46V153.305V142.756ZM164.606 142.756H172.065V153.312V153.44H168.018L165.176 148.889L164.606 148.069V142.756ZM152.785 166.012C153.035 161.46 156.576 157.863 161.064 157.543C156.576 157.856 153.035 161.524 152.785 166.012ZM162.461 157.543C164.356 157.671 166.066 158.426 167.456 159.566C166.059 158.426 164.356 157.671 162.461 157.543ZM194.951 154.067H176.618V153.305V140.163H194.951V153.305V154.067ZM188.375 142.378C189.009 142.378 189.579 142.756 189.579 143.197V152.614H187.178V143.197C187.17 142.756 187.676 142.378 188.375 142.378ZM183.636 142.378C184.271 142.378 184.841 142.756 184.841 143.197V152.614H182.439V143.197C182.432 142.756 182.938 142.378 183.636 142.378ZM191.096 158.682H193.562V156.218H191.096V158.682ZM178.136 158.682H180.665V156.218H178.136V158.682ZM140.331 142.378C140.965 142.378 141.535 142.756 141.535 143.197V152.614H139.134V143.197C139.134 142.756 139.64 142.378 140.331 142.378ZM135.593 142.378C136.227 142.378 136.733 142.756 136.733 143.197V152.614H134.396V143.197C134.388 142.756 134.894 142.378 135.593 142.378ZM143.052 158.682H145.518V156.218H143.052V158.682ZM130.092 158.682H132.557V156.218H130.092V158.682ZM195.136 213.592H193.426V196.91C193.426 191.789 185.902 187.622 185.902 187.622C185.902 187.622 178.378 191.796 178.378 196.91V213.592H175.913V203.164V202.409V198.05V197.288V185.664H195.129V197.288V198.05V202.409V203.164V213.592H195.136ZM171.303 213.592H169.344V196.91C169.344 191.789 161.82 187.622 161.82 187.622C161.82 187.622 154.296 191.796 154.296 196.91V213.592H152.144V203.164V202.409V198.05V197.288V185.664H171.296V197.288V198.05V202.409V203.164V213.592H171.303ZM147.477 213.592H145.325V196.91C145.325 191.789 137.801 187.622 137.801 187.622C137.801 187.622 130.277 191.796 130.277 196.91V213.592H128.382V203.164V202.409V198.05V197.288V185.664H147.47V197.288V198.05V202.409V203.164V213.592H147.477Z" fill="#CCCED0"/>
<path fill-rule="evenodd" clip-rule="evenodd" d="M440.343 210.942H441.604L432.057 192.486C427.062 187.686 420.236 184.78 412.776 184.78C405.951 184.78 399.752 187.244 394.95 191.29L384.775 210.942H386.606V215.429H362.588V210.942H365.751L385.538 172.714V166.965H389.777L396.795 146.865V146.423H396.923L398.883 140.732H398.127V135.426H400.343V134.414H397.052V128.659H402.046C405.773 99.4627 407.547 49.2898 408.117 33.235H407.988V31.9742H408.181L408.245 28.8758H407.361V23.6975H409.641V17.3155H412.292V8.2767H413.175V0H414.187V8.2767H415.135V17.3155H417.728V23.6975H420.065V28.8758H419.118L419.246 31.9742H419.374V33.235H419.31C419.624 42.2738 420.258 62.239 421.526 83.2228L421.59 83.4151L421.526 83.4792C422.281 96.1791 423.229 109.135 424.369 120.261C424.682 123.296 425.06 126.009 425.316 128.666H430.375V134.421H427.091V135.433H429.242V140.739H428.736L430.696 146.43L437.835 166.973H440.044V172.343L440.486 172.151L460.585 210.949H464.376V215.436H440.357V210.942H440.343ZM391.544 165.626L397.928 161.901L394.194 158.297L391.544 165.626ZM395.149 155.327L400.835 151.602L397.614 148.375L395.149 155.327ZM398.498 145.854L402.673 143.197L400.144 141.053L398.498 145.854ZM427.326 140.732H427.133L424.732 143.004L428.972 145.469L427.326 140.732ZM430.04 148.439L427.069 151.473L432.192 154.693L430.04 148.439ZM433.389 158.048L429.342 161.901L436.104 165.819L433.389 158.048ZM412.976 28.8758L411.458 30.1366L409.941 28.8758H412.976ZM411.017 30.5853L409.242 31.9742L409.371 29.1322L411.017 30.5853ZM410.069 31.9742L411.33 30.8987L412.47 31.9742H410.069ZM411.836 30.5212L413.097 29.5098V29.5739V29.638V29.9514V30.0155V30.393V30.4571V30.8987V31.0269V31.6608L411.836 30.5212ZM413.097 33.3632L411.202 35.322L409.242 33.235H413.097V33.3632ZM410.696 35.8277L409.114 37.5372L409.178 34.1253L410.696 35.8277ZM409.114 38.3563L411.138 36.2693L412.969 38.3563H409.114ZM411.579 35.7636L413.097 34.1823V37.4018L411.579 35.7636ZM413.097 39.617L411.074 41.6399L409.242 39.5529H413.097V39.617ZM410.511 42.0815L408.865 43.8479L408.986 40.2438L410.511 42.0815ZM408.801 44.7383L411.017 42.5872L412.848 44.8024H408.801V44.7383ZM411.458 42.0815L413.104 40.4361V43.9762L411.458 42.0815ZM413.097 46.1272L411.009 48.1501L409.05 45.999H413.097V46.1272ZM410.447 48.6558L408.615 50.4223V50.0448L408.744 46.7612L410.447 48.6558ZM408.737 51.1203L410.888 49.0974L412.719 51.1203H408.737ZM411.33 48.6558L413.097 47.0105V50.5505L411.33 48.6558ZM413.097 52.7657L411.009 54.5962L408.729 52.3241H412.962L413.09 52.3882V52.7657H413.097ZM410.447 55.0379L408.359 56.8043L408.551 53.0791L410.447 55.0379ZM408.423 57.5665L410.888 55.4795L412.912 57.5665H408.423ZM411.33 55.0379L413.097 53.5848V55.102V55.3584V55.8V55.9923V56.498V56.7473L411.33 55.0379ZM414.301 52.5734L414.486 52.3241H418.719L416.574 54.5962L414.301 52.6375V52.5734ZM413.097 58.8343L410.696 60.8572L408.608 58.7702H413.097V58.8343ZM410.19 61.2988L408.102 63.0653L408.231 59.34L410.19 61.2988ZM407.981 63.8844L410.639 61.7333L412.791 64.0055H407.981V63.8844ZM411.138 61.2988L412.969 59.6534V60.0309V60.5367V60.9783V61.6122V62.0538V62.6877V63.1935V63.2576L411.138 61.2988ZM412.912 65.2804L410.511 67.3674L408.359 65.1522H412.912V65.2804ZM410.005 67.8019L407.789 69.7607L407.917 65.7149L410.005 67.8019ZM407.981 70.3305L410.447 68.2435L412.534 70.3305H407.981ZM411.017 67.8019L412.912 66.0996V66.4771V66.7905V67.7378V68.1153L412.848 69.1268V69.4402V69.7535L411.017 67.8019ZM408.11 65.1522L407.917 65.7221L407.981 65.1522H408.11ZM412.655 71.5342L410.382 73.5571L408.359 71.5342H412.655ZM409.812 74.0629L407.411 76.2139L407.604 71.9189L409.812 74.0629ZM407.853 76.7766L410.318 74.5045L412.655 76.7766H407.853ZM410.888 73.9988L412.848 72.2964L412.784 73.3719V73.5643V74.8891V75.0173L412.719 75.7795L410.888 73.9988ZM412.278 77.9804L410.069 79.811L408.238 77.9804H412.278ZM409.435 80.4449L407.034 82.4036L407.354 78.2297L409.435 80.4449ZM407.411 83.1587L410.005 80.9435L412.092 83.1587H407.411ZM410.696 80.4449L412.655 78.6713V79.4976L412.527 82.3395L410.696 80.4449ZM412.47 84.3624L410.069 86.3853L408.174 84.3624H412.47ZM409.435 86.891L406.649 89.2914L406.97 84.3624L409.435 86.891ZM407.604 89.5407L410.005 87.5178L412.028 89.5407H407.604ZM410.696 86.891L412.463 85.438V85.6944L412.399 86.0078V87.2756V87.6531L412.335 88.6646L410.696 86.891ZM411.9 90.7444L409.627 92.575L407.86 90.7444H411.9ZM408.986 93.2089L406.207 95.5452L406.585 90.7444L408.986 93.2089ZM407.034 95.9227L409.563 93.7716L411.715 95.9227H407.034ZM410.254 93.2089L412.278 91.4425L412.214 92.1405V92.6462L412.085 95.0466L410.254 93.2089ZM411.458 97.1265L409.057 99.0852L407.162 97.1265H411.458ZM408.359 99.591L405.765 101.678L406.143 97.1906L408.359 99.591ZM406.271 102.312L408.986 100.225L410.881 102.312H406.271ZM409.563 99.6551L411.964 97.8245C411.9 99.1493 411.836 100.602 411.708 101.934L409.563 99.6551ZM411.266 103.573L408.865 105.403L407.034 103.573H411.266ZM408.231 105.973L405.26 108.309C405.388 106.792 405.509 105.147 405.637 103.573H405.887L408.231 105.973ZM406.143 108.694L408.737 106.543L410.76 108.694H406.143ZM409.435 106.037L411.579 104.328C411.515 105.595 411.451 106.856 411.33 108.06L409.435 106.037ZM410.254 109.891L408.167 111.6L406.585 109.891H410.254ZM407.475 112.17L404.697 114.321C404.889 112.932 405.01 111.415 405.074 109.898H405.388L407.475 112.17ZM405.074 115.14L407.981 112.74L410.325 115.14H405.074ZM408.672 112.227L411.202 110.211C411.074 111.6 411.017 113.117 410.824 114.442L408.672 112.227ZM410.382 116.337L407.604 118.488L405.644 116.337H410.382ZM406.97 118.993L404.248 121.266H404.055C404.184 119.684 404.312 118.046 404.497 116.401L406.97 118.993ZM405.516 121.266L407.54 119.627L409.057 121.266H405.516ZM408.231 119.122L410.632 117.227C410.439 118.559 410.318 119.948 410.19 121.145L408.231 119.122ZM409.877 122.469L406.777 124.998L404.44 122.469H409.877ZM406.143 125.504L403.3 127.783C403.428 126.266 403.678 124.685 403.806 123.103L406.143 125.504ZM403.428 128.659L406.649 126.131L408.801 128.403V128.467L408.737 128.652H403.428V128.659ZM407.347 125.568L409.812 123.609C409.563 124.998 409.371 126.33 409.114 127.462L407.347 125.568ZM414.558 28.8758L416.132 30.1366L417.586 28.8758H414.558ZM416.581 30.5853L418.099 31.789L418.035 29.2605L416.581 30.5853ZM417.401 31.9742L416.196 30.8987L414.999 31.9742H417.401ZM415.691 30.5212L414.301 29.3174V29.5739V29.638V29.9514V30.0155V30.393V30.4571V30.8987V31.0269V31.789L415.691 30.5212ZM414.301 33.235L416.382 35.322L418.156 33.2991V33.235H414.301ZM416.831 35.8277L418.22 37.3448L418.156 34.3746L416.831 35.8277ZM418.284 38.2281L416.453 36.2693L414.494 38.3563H418.284V38.2281ZM415.947 35.7636L414.308 34.0541V37.5941L415.947 35.7636ZM414.429 39.56L416.517 41.647L418.22 39.56H414.429ZM416.959 42.0815L418.476 43.5986L418.412 40.4361L416.959 42.0815ZM418.533 44.489L416.574 42.5943L414.743 44.8095H418.533V44.489ZM416.068 42.0815L414.301 40.315V44.2967L416.068 42.0815ZM414.301 46.0062L416.574 48.1572L418.533 46.0062H414.301ZM417.087 48.6558L418.726 50.173L418.598 46.9464L417.087 48.6558ZM418.726 51.1203L416.645 49.0974L414.871 51.1203H418.726ZM416.132 48.6558L414.301 46.8894V50.7428L416.132 48.6558ZM417.087 55.0379L418.982 56.6832L418.854 53.2073L417.087 55.0379ZM419.046 57.5024L416.645 55.4795L414.558 57.5665H419.046V57.5024ZM416.132 55.0379L414.301 53.4566V55.102V55.3584V55.8V55.9923V56.498V56.8114V56.8755L416.132 55.0379ZM414.429 58.7702L416.895 60.8572L418.982 58.7702H414.429ZM417.401 61.2988L419.296 62.9442L419.103 59.5965L417.401 61.2988ZM419.296 63.7633L416.959 61.7404L414.807 64.0126H419.36L419.296 63.7633ZM416.453 61.2988L414.365 59.5252V60.0309V60.5367V60.9783V61.6122V62.0538V62.6877V63.1935V63.3858L416.453 61.2988ZM414.429 65.1522L417.023 67.3674L419.232 65.1522H414.429ZM417.586 67.8019L419.609 69.5755L419.417 65.9072L417.586 67.8019ZM419.609 70.3305L417.08 68.2435L414.992 70.3305H419.609ZM416.581 67.8019L414.429 65.9072V66.4771V66.7905V67.7378V68.1153L414.494 69.1268V69.4402V69.8818L416.581 67.8019ZM414.935 71.5342L417.087 73.5571L419.111 71.5342H414.935ZM417.714 74.0629L419.93 76.0216L419.738 72.1041L417.714 74.0629ZM419.738 76.7766L417.272 74.5045L414.935 76.7766H419.738ZM416.638 73.9988L414.486 72.1041L414.551 73.3648V73.5571V74.882V75.0102L414.615 75.9575L416.638 73.9988ZM415.249 77.9804L417.465 79.811L419.296 77.9804H415.249ZM418.092 80.4449L420.243 82.2113L420.051 78.422L418.092 80.4449ZM420.115 83.1587L417.586 80.9435L415.37 83.1587H420.115ZM416.895 80.4449L414.622 78.5502L414.75 79.4976L414.814 82.5318L416.895 80.4449ZM415.121 84.3624L417.393 86.3853L419.417 84.3624H415.121ZM418.092 86.891L420.685 89.1703L420.372 84.6188L418.092 86.891ZM419.93 89.5407L417.593 87.5178L415.569 89.5407H419.93ZM416.895 86.891L414.871 85.2456V85.6873L414.935 86.0007V87.2685V87.646L414.999 88.8427L416.895 86.891ZM415.691 90.7444L417.842 92.575L419.738 90.7444H415.691ZM418.533 93.2089L421.127 95.36L420.87 90.8727L418.533 93.2089ZM420.557 95.9227L418.028 93.7716L415.812 95.9227H420.557ZM417.336 93.2089L415.121 91.3143L415.185 92.1334V92.6391L415.249 95.2959L417.336 93.2089ZM416.068 97.1265L418.533 99.0852L420.308 97.1265H416.068ZM419.232 99.591L421.512 101.55L421.191 97.4399L419.232 99.591ZM421.191 102.312L418.598 100.225L416.574 102.312H421.191ZM417.906 99.6551L415.377 97.5681C415.441 99.1493 415.569 100.666 415.634 102.12L417.906 99.6551ZM416.261 103.573L418.662 105.403L420.493 103.573H416.261ZM419.36 105.973L422.139 108.188C421.946 106.607 421.825 105.154 421.761 103.573H421.697L419.36 105.973ZM421.448 108.694L418.726 106.543L416.766 108.694H421.448ZM418.092 106.037L415.755 104.142C415.819 105.531 415.947 106.92 416.011 108.252L418.092 106.037ZM417.336 109.891L419.424 111.6L421.006 109.891H417.336ZM420.115 112.17L422.645 114.193C422.516 112.74 422.331 111.351 422.267 109.898H422.203L420.115 112.17ZM422.516 115.14L419.481 112.74L417.265 115.14H422.516ZM418.854 112.227L416.139 109.955C416.204 111.6 416.389 113.181 416.524 114.691L418.854 112.227ZM417.208 116.337L419.866 118.488L421.953 116.337H417.208ZM420.557 118.993L423.336 121.266C423.143 119.748 423.022 118.167 422.83 116.65L420.557 118.993ZM421.953 121.266L420.058 119.627L418.476 121.266H421.953ZM419.36 119.122L416.766 117.035C416.895 118.488 417.016 119.941 417.272 121.266L419.36 119.122ZM417.65 122.469L420.749 124.998L423.086 122.469H417.65ZM421.448 125.504L424.041 127.591C423.913 126.202 423.663 124.749 423.535 123.296L421.448 125.504ZM424.034 128.659L420.87 126.131L418.533 128.595L418.598 128.659H424.034ZM420.179 125.568L417.586 123.417C417.778 124.998 418.028 126.387 418.277 127.591L420.179 125.568ZM399.317 146.416H406.4L403.428 143.888L399.317 146.416ZM406.521 140.732L403.428 142.691L401.213 140.732H406.521ZM404.184 143.389L408.295 140.732H408.865L408.11 146.423H407.86L404.184 143.389ZM423.977 143.638L421.006 146.416H428.786L423.977 143.638ZM420.749 140.732L423.913 142.563L425.872 140.732H420.749ZM423.15 143.197L418.726 140.732L419.673 146.423L423.15 143.197ZM395.904 156.402H405.701L401.783 152.549L395.904 156.402ZM406.905 147.62L401.783 150.968L398.434 147.62H406.905ZM402.794 151.915L407.725 148.76L406.585 155.776L402.794 151.915ZM426.057 152.421L422.075 156.402H432.563L426.057 152.421ZM420.878 147.62L426.065 150.847L429.285 147.62H420.878ZM425.11 151.787L419.93 148.567L421.006 155.327L421.07 155.833L425.11 151.787ZM428.337 162.849L424.162 166.958H435.099L428.337 162.849ZM422.267 157.606L428.273 161.21L432 157.606H422.267ZM427.197 162.279L421.576 158.867L422.773 166.517L427.197 162.279ZM392.178 166.958H403.243L398.947 162.849L392.178 166.958ZM405.01 157.606L399.068 161.21L395.277 157.606H405.01ZM400.08 162.279L406.15 158.675L404.889 166.83L400.08 162.279ZM425.11 179.024V180.983C425.551 181.175 426 181.361 426.378 181.489L425.11 179.024ZM424.604 180.798V178.02L423.785 176.439V180.485L424.604 180.798ZM423.215 180.356V175.427L422.709 174.416H422.395V180.036L423.215 180.356ZM421.825 179.851V174.416H421.063V179.658L421.825 179.851ZM420.493 179.594V174.416H419.673V179.345L420.493 179.594ZM419.103 179.281V174.416H418.277V179.16L419.103 179.281ZM417.778 179.024V174.409H416.959V178.896L417.778 179.024ZM416.453 178.839V174.416H415.626V178.775L416.453 178.839ZM415.121 178.775V174.416H414.301V178.711L415.121 178.775ZM413.731 178.711V174.416H412.912V178.711H413.731ZM412.342 178.711V174.416H411.579V178.711H412.342ZM411.017 178.711V174.416H410.197V178.775L411.017 178.711ZM409.627 178.839V174.416H408.801V178.903L409.627 178.839ZM408.295 178.967V174.416H407.475V179.032L408.295 178.967ZM406.97 179.217V174.416H406.143V179.345L406.97 179.217ZM405.644 179.409V174.416H404.825V179.658L405.644 179.409ZM404.248 179.787V174.416H403.678L403.428 174.858V180.036L404.248 179.787ZM402.858 180.164V175.926L402.096 177.507V180.413L402.858 180.164ZM443.756 209.489L447.041 205.322L439.958 202.159L443.756 209.489ZM448.245 203.926L451.465 199.944H439.395L448.245 203.926ZM452.669 201.148L449.891 204.688L455.897 207.281L452.669 201.148ZM448.686 206.077L444.832 210.942H457.728L457.158 209.802L448.686 206.077ZM437.821 198.049L441.483 195.464L435.42 193.313L437.821 198.049ZM442.937 194.509L446.349 192.173H436.617L442.937 194.509ZM448.181 192.422L444.447 195.015L450.646 197.23L448.181 192.422ZM442.937 196.027L439.082 198.74H450.396L442.937 196.027ZM435.413 190.969H446.093L439.075 188.441L435.413 190.969ZM433.895 190.464L437.557 187.935L431.43 185.727L433.895 190.464ZM439.082 186.867L442.687 184.402H432.192L439.082 186.867ZM444.198 184.901L440.6 187.429L446.663 189.644L444.198 184.901ZM430.169 183.262H443.378L442.174 180.926H428.964L430.169 183.262ZM382.502 209.617L379.154 205.322L386.421 202.159L382.502 209.617ZM377.949 203.926L374.793 199.944H386.87L377.949 203.926ZM373.653 201.212L376.311 204.688L370.554 207.216L373.653 201.212ZM377.515 206.077L381.434 210.942H368.666L369.236 209.745L377.515 206.077ZM388.509 198.113L384.775 195.464L390.974 193.249L388.509 198.113ZM383.265 194.509L379.916 192.173H389.649L383.265 194.509ZM378.206 192.486L381.811 195.015L375.741 197.23L378.206 192.486ZM383.265 196.027L387.183 198.74H375.805L383.265 196.027ZM390.853 190.969H380.165L387.183 188.441L390.853 190.969ZM441.547 179.722H428.337L425.616 174.416H438.825L441.547 179.722ZM392.363 190.528L388.637 187.935L394.957 185.727L392.363 190.528ZM387.183 186.867L383.585 184.402H394.016L387.183 186.867ZM382.061 184.965L385.666 187.429L379.659 189.58L382.061 184.965ZM396.225 183.262H382.951L384.155 180.926H397.429L396.225 183.262ZM397.992 179.722H384.782L387.561 174.416H400.771L397.992 179.722ZM409.748 144.208H418.028L421.504 166.958H406.143L407.917 155.327L409.748 144.208ZM417.778 143.004H409.877L410.254 140.732H417.401L417.778 143.004ZM401.533 180.606V178.519L400.144 181.175C400.586 180.919 401.027 180.798 401.533 180.606ZM429.157 186.802L428.466 185.478C423.849 182.757 418.541 181.247 412.791 181.247C407.54 181.247 402.552 182.572 398.249 184.908L397.614 186.176C402.103 183.647 407.283 182.13 412.784 182.13C418.854 182.123 424.355 183.832 429.157 186.802Z" fill="#CCCED0"/>
<path fill-rule="evenodd" clip-rule="evenodd" d="M296.596 161.524V166.011H297.166V166.837H296.974C313.091 177.016 304.056 180.171 305.952 182.194C302.852 182.13 299.76 182.13 296.596 182.194H287.113C288.317 179.979 278.962 177.073 295.649 166.837H295.456V166.011H296.026V161.78C295.898 161.78 295.777 161.78 295.649 161.78C294.951 161.78 294.324 161.338 294.067 160.64C294.381 160.961 294.765 161.082 295.207 161.082C296.155 161.082 296.974 160.327 296.974 159.373C296.974 159.18 296.91 158.931 296.846 158.803C297.223 159.116 297.416 159.558 297.416 160.006C297.416 160.64 297.102 161.203 296.596 161.524ZM265.118 186.104C265.311 185.727 263.793 185.278 266.572 183.576C269.229 185.278 267.776 185.791 268.089 186.104C267.078 186.104 266.13 186.104 265.118 186.104ZM264.99 189.011H268.025V187.365H264.99V189.011ZM265.56 188.633H266.13V187.686H265.56V188.633ZM266.949 188.633H267.455V187.686H266.949V188.633ZM266.258 188.633H266.764V187.686H266.258V188.633ZM264.612 187.18H268.467V186.867H264.612V187.18ZM264.612 186.61H268.467V186.29H264.612V186.61ZM264.612 189.516H268.467V189.267H264.612V189.516ZM264.612 189.894H268.467V189.644H264.612V189.894ZM264.926 189.958H268.089V197.793H264.926V189.958ZM268.089 198.306V205.065H264.926V198.306H268.089ZM268.089 205.571V209.745H271.816V190.407L278.071 189.139V209.745H278.321V185.734H279.14V185.478H286.472V183.262H306.194V185.093V185.47H313.782V185.727H314.416V209.738H314.794V188.818L320.864 190.528V209.738H324.975V205.564H328.075V209.738H333.703V202.978H338.762V209.738H345.21V211.44H247.605V209.738H254.245V202.978H259.368V209.738H264.933V205.564H268.089V205.571ZM259.112 171.317C258.798 170.748 261.264 170.057 256.775 167.343C252.414 169.993 254.815 170.819 254.31 171.317C255.884 171.317 257.53 171.317 259.112 171.317ZM259.24 176.054H254.374V173.397H259.24V176.054ZM258.349 175.491H257.53V173.974H258.349V175.491ZM256.077 175.491H255.257V173.974H256.077V175.491ZM257.217 175.491H256.397V173.974H257.217V175.491ZM259.995 173.276H253.675V172.585H259.995V173.276ZM259.995 172.265H253.675V171.631H259.995V172.265ZM259.995 176.88H253.675V176.246H259.995V176.88ZM259.995 177.507H253.675V177.066H259.995V177.507ZM345.21 215.429H247.605V212.017H345.203V215.429H345.21ZM259.361 177.635H254.238V190.335H259.361V177.635ZM333.896 171.317C334.273 170.748 331.744 170.057 336.297 167.343C340.657 169.993 338.256 170.819 338.762 171.317C337.116 171.317 335.535 171.317 333.896 171.317ZM338.698 176.054V173.397H339.396V172.578H333.076V173.397H333.775V176.054H333.076V176.816V176.88V177.635H333.711V190.335H338.769V177.635H339.403V176.88V176.816V176.054H338.698ZM334.715 175.491H335.535V173.974H334.715V175.491ZM336.931 175.491H337.815V173.974H336.931V175.491ZM335.855 175.491H336.682V173.974H335.855V175.491ZM333.069 172.457H339.389V171.638H333.069V172.457ZM338.762 191.162V202.095H333.703V191.162H338.762ZM287.683 209.738H305.068V186.795H287.683V209.738ZM327.954 186.104C327.761 185.727 329.279 185.278 326.5 183.576C323.778 185.278 325.296 185.791 324.982 186.104C325.994 186.104 326.942 186.104 327.954 186.104ZM328.075 189.011H325.039V187.365H328.075V189.011ZM327.448 188.633H326.942V187.686H327.448V188.633ZM326.115 188.633H325.609V187.686H326.115V188.633ZM326.749 188.633H326.244V187.686H326.749V188.633ZM328.452 187.244H324.598V186.867H328.452V187.244ZM328.452 186.61H324.598V186.29H328.452V186.61ZM328.452 189.516H324.598V189.203H328.452V189.516ZM328.452 189.958H328.075V197.793H324.975V189.958H324.598V189.644H328.452V189.958ZM324.982 198.306V205.065H328.082V198.306H324.982ZM254.245 191.162V202.095H259.368V191.162H254.245ZM276.369 203.171V207.85L273.148 207.914V203.555C273.148 202.736 274.666 201.404 274.73 201.404C274.787 201.397 276.369 202.344 276.369 203.171ZM276.369 195.328V199.944L273.148 200.322V195.706C273.148 194.823 274.666 193.491 274.73 193.491C274.787 193.434 276.369 194.381 276.369 195.328ZM316.632 203.171V207.85L319.86 207.914V203.555C319.86 202.736 318.278 201.404 318.214 201.404C318.157 201.397 316.632 202.344 316.632 203.171ZM316.632 195.328V199.944L319.86 200.322V195.706C319.86 194.823 318.278 193.491 318.214 193.491C318.157 193.434 316.632 194.381 316.632 195.328ZM307.156 185.093C307.54 184.395 304.498 183.576 310.063 180.228H309.999H309.806V179.979H309.999V178.839C309.934 178.839 309.87 178.839 309.806 178.839C309.614 178.839 309.364 178.647 309.3 178.462C309.364 178.526 309.55 178.59 309.678 178.59C309.991 178.59 310.248 178.341 310.248 178.084C310.248 178.02 310.248 177.963 310.184 177.899C310.312 177.963 310.369 178.084 310.369 178.276C310.369 178.469 310.305 178.59 310.184 178.718V179.979H310.312V180.228H310.184H310.063C315.371 183.455 312.592 184.466 313.098 185.093H307.156ZM297.986 196.34V199.944H301.655V196.212C301.655 194.061 296.661 191.154 296.404 191.154C296.148 191.154 291.16 194.061 291.16 196.212V199.944H294.765V196.34C294.765 195.706 296.283 194.823 296.411 194.823C296.468 194.823 297.986 195.713 297.986 196.34ZM297.986 204.367V207.907H294.765V204.367C294.765 203.669 296.283 202.793 296.411 202.793C296.468 202.786 297.986 203.669 297.986 204.367ZM301.655 201.212H291.16V207.907H289.642V188.697H303.109V207.907H301.655V201.212ZM281.299 197.166H282.56V199.566H281.299V197.166ZM281.299 205.507H282.56V207.907H281.299V205.507ZM310.312 205.507H311.573V207.907H310.312V205.507ZM310.312 197.166H311.573V199.566H310.312V197.166ZM280.159 186.988H281.299V188.697H280.159V186.988ZM311.766 186.988H312.97V188.697H311.766V186.988ZM309.87 186.988H311.01V188.697H309.87V186.988ZM307.911 186.988H309.051V188.697H307.911V186.988ZM284.078 186.988H285.218V188.697H284.078V186.988ZM282.118 186.988H283.258V188.697H282.118V186.988ZM308.609 201.02H310.376C309.999 201.212 309.621 201.525 309.429 201.653C309.051 201.967 308.545 202.544 308.545 203.107V208.164H313.411V203.107C313.411 202.537 312.841 201.967 312.464 201.653C312.336 201.525 311.894 201.212 311.516 201.02H313.411V200.514H308.609V201.02ZM279.532 192.422H281.684C281.306 192.615 280.608 193.184 280.423 193.306C280.045 193.619 279.475 194.189 279.475 194.759V199.816H284.341V194.759C284.341 194.189 283.771 193.619 283.394 193.306C283.201 193.113 282.574 192.608 282.133 192.422H284.349V191.917H279.546V192.422H279.532ZM279.532 201.02H281.363C280.986 201.212 280.544 201.525 280.416 201.653C280.038 201.967 279.468 202.544 279.468 203.107V208.164H284.334V203.107C284.334 202.537 283.828 201.967 283.387 201.653C283.258 201.525 282.881 201.212 282.503 201.02H284.334V200.514H279.532V201.02ZM308.481 192.422H310.754C310.312 192.615 309.614 193.12 309.486 193.306C309.044 193.619 308.538 194.189 308.538 194.759V199.816H313.404V194.759C313.404 194.189 312.834 193.619 312.457 193.306C312.264 193.177 311.573 192.608 311.196 192.422H313.219V191.917H308.481V192.422ZM282.945 177.892C283.073 177.956 283.137 178.077 283.137 178.269C283.137 178.462 283.073 178.583 282.945 178.711V179.972H283.137V180.221H282.945H282.817H282.753H282.56V179.972H282.753V178.832C282.688 178.832 282.624 178.832 282.56 178.832C282.368 178.832 282.183 178.64 282.054 178.455C282.183 178.519 282.311 178.583 282.432 178.583C282.745 178.583 283.002 178.333 283.002 178.077C283.009 178.013 283.009 177.956 282.945 177.892ZM282.817 180.228C288.125 183.455 285.41 184.466 285.852 185.093H279.91C280.351 184.402 277.252 183.576 282.817 180.228Z" fill="#CCCED0"/>
<path fill-rule="evenodd" clip-rule="evenodd" d="M366.571 116.593H365.438V111.664V108.502L365.31 108.63L365.117 108.502V111.095L364.868 110.781L364.619 111.223L364.362 111.664L364.048 111.223L363.792 110.781L363.478 111.223L363.229 111.664L362.916 111.223L362.659 110.781L362.346 111.223L362.089 111.664L361.84 111.223L361.526 110.781L361.27 111.223L360.956 111.664L360.707 111.223L360.393 110.781L360.144 111.223L359.887 111.664L359.567 111.223L359.318 110.781L359.004 111.223L358.747 111.664L358.434 111.223L358.185 110.781L357.871 111.223L357.622 111.664L357.365 111.223L357.052 110.781L356.802 111.223L356.489 111.664L356.239 111.223L355.926 110.781L355.677 111.223L355.427 111.664L355.107 111.223L354.85 110.781L354.537 111.223L354.287 111.664L353.974 111.223L353.724 110.781L353.404 111.223L353.154 111.664L352.905 111.223L352.584 110.781L352.335 111.223L352.022 111.664L351.772 111.223L351.459 110.781L351.209 111.223L350.953 111.664L350.639 111.223L350.39 110.781L350.069 111.223L349.82 111.664L349.506 111.223L349.25 110.781L348.936 111.223L348.687 111.664L348.438 111.223L348.124 110.781L347.868 111.223L347.554 111.664L347.305 111.223L346.991 110.781L346.735 111.223L346.485 111.664L346.172 111.223L345.922 110.781L345.666 111.159V108.509L345.481 108.637L345.288 108.509V111.672V116.601H344.212V113.438L344.084 113.623L343.892 113.438V116.601V139.657H366.963V116.593V113.431L366.77 113.616L366.642 113.431V116.593H366.571ZM367.269 215.429H342.802V200.835H367.269V215.429ZM364.868 199.695V186.048H363.856V199.695H363.094V186.048H362.018V199.695H361.263V186.048H360.251V199.695H359.432V186.048H358.42V199.695H357.6V186.048H356.589V199.695H355.769V186.048H354.758V199.695H353.938V186.048H352.926V199.695H352.164V186.048H351.088V199.695H350.333V186.048H349.321V199.695H348.502V186.048H347.49V199.695H346.671V186.048H345.659V199.695H344.839V171.446H365.701V199.695H364.868ZM363.856 185.286H364.868V172.08H363.856V185.286ZM345.652 185.286H346.663V172.08H345.652V185.286ZM347.483 185.286H348.495V172.08H347.483V185.286ZM349.314 185.286H350.326V172.08H349.314V185.286ZM351.088 185.286H352.164V172.08H351.088V185.286ZM352.919 185.286H353.931V172.08H352.919V185.286ZM354.75 185.286H355.762V172.08H354.75V185.286ZM356.589 185.286H357.6V172.08H356.589V185.286ZM358.42 185.286H359.432V172.08H358.42V185.286ZM360.251 185.286H361.263V172.08H360.251V185.286ZM362.025 185.286H363.101V172.08H362.025V185.286ZM346.158 107.811L345.395 107.177L344.704 107.811L345.395 108.566L346.158 107.811ZM366.008 107.811L365.317 107.177L364.619 107.811L365.317 108.566L366.008 107.811ZM367.397 112.74L366.699 112.106L366.065 112.74L366.699 113.495L367.397 112.74ZM344.64 112.74L344.013 112.106L343.315 112.74L344.013 113.495L344.64 112.74ZM345.21 107.241V106.8H345.588V107.241L345.402 107.049L345.21 107.241ZM365.117 107.241V106.8H365.438V107.241L365.31 107.049L365.117 107.241ZM343.821 112.17V111.664H344.134V112.106L344.006 111.978L343.821 112.17ZM366.571 112.106V111.664H366.884V112.17L366.692 111.978L366.571 112.106ZM350.39 103.573L347.355 111.095L347.419 111.159L347.483 111.287L348.053 110.468L348.495 111.166L348.623 111.294L348.751 111.166L349.193 110.468L349.763 111.351L349.891 111.159L350.34 110.404L350.718 111.159L350.91 111.351L351.416 110.468L351.922 111.166L351.986 111.294L352.114 111.166L352.556 110.468L352.998 111.166L353.126 111.294L353.254 111.166L353.696 110.468L354.138 111.166L354.266 111.358L354.394 111.166L354.836 110.411L355.221 111.166L355.413 111.358L355.477 111.166L355.919 110.468L356.425 111.166L356.489 111.294L357.059 110.475L357.501 111.173L357.629 111.301L357.757 111.173L358.199 110.475L358.769 111.358L358.897 111.166L359.339 110.411L359.781 111.166L359.909 111.358L360.415 110.475L360.921 111.173L360.985 111.301L361.555 110.482L361.997 111.18L362.125 111.308L362.253 111.18L362.695 110.482L363.265 111.301L363.329 111.173L363.393 111.109L360.358 103.587H350.39V103.573ZM351.402 108.694L350.775 107.619L350.582 107.369L349.756 108.694L350.005 108.822L350.575 107.875L351.081 108.822L351.402 108.694ZM356.147 106.166L355.513 105.026L355.384 104.777L354.558 106.166L354.807 106.294L355.377 105.346L355.883 106.294L356.147 106.166ZM359.303 106.166L358.612 105.026L358.484 104.777L357.664 106.166L357.921 106.294L358.491 105.346L358.997 106.294L359.303 106.166ZM360.885 108.694L360.187 107.619L360.059 107.369L359.296 108.694L359.488 108.822L360.059 107.875L360.628 108.822L360.885 108.694ZM357.664 108.694L357.095 107.619L356.902 107.369L356.083 108.694L356.332 108.822L356.902 107.875L357.472 108.822L357.664 108.694ZM354.501 108.694L353.931 107.619L353.739 107.369L352.919 108.694L353.169 108.822L353.739 107.875L354.245 108.822L354.501 108.694ZM353.304 106.166L352.734 105.026L352.542 104.777L351.722 106.166L351.972 106.294L352.542 105.346L353.047 106.294L353.304 106.166ZM348.431 112.804H346.158V115.902H348.431V112.804ZM364.234 112.804H362.018V115.902H364.234V112.804ZM361.142 112.804H358.805V115.902H361.142V112.804ZM357.978 112.804H355.641V115.902H357.978V112.804ZM354.814 112.804H352.477V115.902H354.814V112.804ZM351.594 112.804H349.321V115.902H351.594V112.804ZM356.268 84.4268H354.437V83.102H356.268V84.4268ZM350.333 94.5982L349.635 93.9002L348.936 94.5982L349.635 95.2891L350.333 94.5982ZM361.769 94.5982L361.077 93.9002L360.379 94.5982L361.077 95.2891L361.769 94.5982ZM360.693 97.3191L360.443 97.8248L360.187 98.3305H360.123L359.93 97.8248L359.617 97.3191L359.303 97.8248L359.111 98.3305L358.861 97.8248L358.548 97.3191L358.299 97.8248L358.049 98.3305L357.793 97.8248L357.543 97.3191L357.223 97.8248L356.973 98.3305L356.724 97.8248L356.475 97.3191L356.161 97.8248L355.969 98.3305H355.905L355.655 97.8248L355.406 97.3191L355.085 97.8248L354.893 98.3305H354.829L354.579 97.8248L354.33 97.3191L354.017 97.8248L353.824 98.3305H353.76L353.503 97.8248L353.254 97.3191L352.941 97.8248L352.748 98.3305H352.691L352.435 97.8248L352.121 97.3191L351.872 97.8248L351.622 98.3305L351.43 97.8248L351.117 97.3191L350.803 97.8248L350.611 98.3305H350.547L350.354 97.8248L350.034 97.3191L349.82 97.6325V95.4173L349.627 95.5455L349.435 95.4173V98.3234V103.188H361.256V98.3234V95.4173L361.07 95.5455L360.878 95.4173V97.6325L360.693 97.3191ZM355.384 82.3398C355.384 82.5322 355.32 82.7173 355.32 82.9097H355.384C355.384 82.7173 355.384 82.5322 355.384 82.3398ZM355.135 84.6191C354.437 88.9783 352.413 92.8317 351.024 96.9416V96.8775L351.53 97.7607L351.594 97.8889L352.1 96.8775L352.606 97.7607L352.67 97.8889L352.727 97.7607L353.233 96.8775L353.739 97.8889L353.803 97.7607L354.309 96.8775L354.814 97.8889L354.879 97.7607L355.384 96.8775L355.826 97.7607L355.89 97.8889L355.955 97.7607L356.46 96.8775L356.966 97.8889L357.03 97.7607L357.536 96.8775L358.042 97.8889L358.106 97.7607L358.612 96.8775L358.99 97.7607L359.118 97.8889L359.182 97.7607L359.624 96.8775C359.752 96.6852 355.769 86.3856 355.513 84.6191H355.135ZM356.147 90.5524L355.513 89.541L355.384 89.2276L354.558 90.5524L354.807 90.7376L355.377 89.7903L355.883 90.7376L356.147 90.5524ZM353.746 95.9943L353.176 94.8546L352.99 94.6053L352.164 95.9943L352.413 96.1225L352.983 95.111L353.489 96.1225L353.746 95.9943ZM356.147 95.9943L355.513 94.8546L355.384 94.6053L354.558 95.9943L354.807 96.1225L355.377 95.111L355.883 96.1225L356.147 95.9943ZM358.548 95.9943L357.914 94.8546L357.722 94.6053L356.895 95.9943L357.209 96.1225L357.714 95.111L358.284 96.1225L358.548 95.9943ZM354.75 93.3944L354.116 92.2548L353.924 92.0055L353.169 93.3944L353.418 93.5226L353.924 92.5112L354.494 93.5226L354.75 93.3944ZM357.536 93.3944L356.902 92.2548L356.774 92.0055L355.955 93.3944L356.147 93.5226L356.774 92.5112L357.28 93.5226L357.536 93.3944ZM349.442 93.8432V93.4015H349.82V93.8432L349.627 93.658L349.442 93.8432ZM360.885 93.8432V93.4015H361.263V93.8432L361.077 93.658L360.885 93.8432ZM351.843 99.2779H350.069V102.44H351.843V99.2779ZM360.628 99.2779H358.861V102.44H360.628V99.2779ZM358.42 99.2779H356.653V102.44H358.42V99.2779ZM356.268 99.2779H354.501V102.44H356.268V99.2779ZM354.059 99.2779H352.292V102.44H354.059V99.2779ZM363.984 169.865H364.996V155.455H363.984V169.865ZM345.716 169.865H346.728V155.455H345.716V169.865ZM347.547 169.865H348.559V155.455H347.547V169.865ZM349.378 169.865H350.39V155.455H349.378V169.865ZM351.216 169.865H352.228V155.455H351.216V169.865ZM353.047 169.865H354.059V155.455H353.047V169.865ZM354.814 169.865H355.89V155.455H354.814V169.865ZM356.646 169.865H357.657V155.455H356.646V169.865ZM358.484 169.865H359.496V155.455H358.484V169.865ZM360.315 169.865H361.327V155.455H360.315V169.865ZM362.153 169.865H363.165V155.455H362.153V169.865ZM363.984 154.693H364.996V141.423H363.984V154.693ZM345.716 154.693H346.728V141.423H345.716V154.693ZM347.547 154.693H348.559V141.423H347.547V154.693ZM349.378 154.693H350.39V141.423H349.378V154.693ZM351.216 154.693H352.228V141.423H351.216V154.693ZM353.047 154.693H354.059V141.423H353.047V154.693ZM354.814 154.693H355.89V141.423H354.814V154.693ZM356.646 154.693H357.657V141.423H356.646V154.693ZM358.484 154.693H359.496V141.423H358.484V154.693ZM360.315 154.693H361.327V141.423H360.315V154.693ZM362.153 154.693H363.165V141.423H362.153V154.693ZM365.751 140.861H344.953V170.435H365.751V140.861ZM347.611 137.698H346.414V138.902H347.611V137.698ZM364.234 137.698H363.037V138.902H364.234V137.698ZM362.716 137.698H361.512V138.902H362.716V137.698ZM361.198 137.698H360.001V138.902H361.198V137.698ZM359.681 137.698H358.484V138.902H359.681V137.698ZM358.17 137.698H356.966V138.902H358.17V137.698ZM356.646 137.698H355.449V138.902H356.646V137.698ZM355.135 137.698H353.931V138.902H355.135V137.698ZM353.618 137.698H352.413V138.902H353.618V137.698ZM352.1 137.698H350.96V138.902H352.1V137.698ZM350.646 137.698H349.442V138.902H350.646V137.698ZM349.129 137.698H347.925V138.902H349.129V137.698ZM355.384 128.852C355.256 128.852 355.135 128.788 355.007 128.788L354.565 129.229C354.501 129.479 354.501 129.671 354.373 129.799C354.309 129.863 354.187 129.863 354.059 129.799C353.931 129.614 353.931 129.614 353.746 129.422C353.617 129.357 353.617 129.236 353.746 129.108C353.874 128.98 354.059 128.916 354.252 128.916L354.758 128.474C354.629 128.41 354.629 128.218 354.629 128.097C354.629 128.033 354.629 127.968 354.629 127.904L350.076 123.04C350.076 123.04 350.076 122.975 350.076 122.911H350.205C350.205 122.847 350.269 122.847 350.269 122.911L355.071 127.399C355.135 127.335 355.263 127.335 355.392 127.335C355.52 127.335 355.705 127.399 355.833 127.463L356.589 126.772C356.524 126.772 356.46 126.708 356.46 126.644C356.332 126.58 356.332 126.387 356.46 126.33C356.589 126.202 356.902 126.138 357.216 126.138L357.344 126.01V125.689H357.786V126.067H357.536L357.344 126.259C357.344 126.572 357.344 126.893 357.216 127.021C357.087 127.085 356.902 127.085 356.838 127.021C356.774 126.957 356.774 126.957 356.774 126.957L356.019 127.712C356.083 127.84 356.147 127.961 356.147 128.09C356.147 128.218 356.083 128.282 356.083 128.339C356.268 128.652 356.653 128.909 357.03 129.037C357.03 129.037 357.095 129.037 357.095 129.101C357.095 129.165 357.095 129.229 357.03 129.229C356.902 129.229 356.902 129.293 356.902 129.357C356.838 129.357 356.838 129.422 356.838 129.486C356.838 129.55 356.774 129.614 356.774 129.614C356.646 129.614 356.582 129.614 356.582 129.678C356.517 129.678 356.453 129.742 356.453 129.806H356.389C356.325 129.87 356.325 129.806 356.261 129.806C356.14 129.365 355.883 129.115 355.506 128.859C355.513 128.852 355.449 128.852 355.384 128.852ZM355.199 121.522C355.071 121.522 354.879 121.522 354.758 121.522L354.693 120.703H354.629C354.814 120.703 355.007 120.703 355.199 120.703V121.522ZM354.373 121.586C354.188 121.651 353.995 121.651 353.803 121.715L353.618 120.896C353.803 120.831 354.059 120.767 354.309 120.767L354.373 121.586ZM353.489 121.772C353.361 121.836 353.24 121.9 353.047 121.9L352.727 121.145C352.919 121.081 353.104 121.017 353.297 120.96L353.489 121.772ZM352.798 122.028C352.606 122.156 352.413 122.22 352.228 122.277L351.786 121.579C351.979 121.451 352.228 121.33 352.477 121.266L352.798 122.028ZM351.908 122.47C351.779 122.591 351.658 122.655 351.53 122.719L351.024 122.021C351.216 121.957 351.338 121.829 351.53 121.7L351.908 122.47ZM351.281 122.911C351.152 123.04 351.088 123.104 350.96 123.168L351.088 123.296C351.152 123.232 351.28 123.111 351.337 123.047H351.402L351.466 122.983C351.651 122.861 351.779 122.733 351.972 122.605H352.036L353.361 124.941C353.233 125.005 353.112 125.069 353.047 125.134L353.176 125.262C353.746 124.756 354.501 124.507 355.392 124.507C356.275 124.507 357.159 124.884 357.793 125.454H358.049C357.857 125.269 357.672 125.077 357.415 124.948L358.683 122.612H358.747C359.004 122.804 359.189 122.926 359.446 123.118L359.51 123.182C359.638 123.31 359.759 123.431 359.952 123.559C360.08 123.752 360.265 123.937 360.458 124.129V124.193L360.522 124.258C360.65 124.45 360.771 124.578 360.835 124.763L358.562 126.088C358.434 125.903 358.249 125.646 358.121 125.454V125.768C358.626 126.337 359.004 127.221 359.004 128.104C359.004 129.115 358.562 129.998 357.928 130.697C357.23 131.33 356.346 131.772 355.399 131.772C354.387 131.772 353.503 131.33 352.805 130.697C352.107 129.998 351.729 129.122 351.729 128.104C351.729 127.285 351.979 126.523 352.485 125.953L352.356 125.825C352.292 125.889 352.228 126.017 352.171 126.074L349.891 124.749C350.019 124.5 350.205 124.243 350.397 124.051V123.987C350.461 123.987 350.461 123.923 350.525 123.866L350.397 123.738C350.333 123.802 350.333 123.866 350.269 123.93L349.571 123.36C349.699 123.296 349.763 123.232 349.827 123.111V123.047C349.827 123.047 349.827 122.983 349.827 122.918V122.79L350.019 122.726C350.083 122.598 350.212 122.598 350.34 122.598C350.468 122.477 350.589 122.413 350.782 122.284L351.281 122.911ZM350.197 124.051H350.133L349.563 123.545L350.197 123.987V124.051ZM350.076 124.172C349.948 124.3 349.827 124.493 349.763 124.678L349.385 124.428L349.008 124.236C349.136 124.051 349.257 123.795 349.385 123.666H349.449L350.076 124.172ZM349.571 124.934C349.506 125.062 349.442 125.183 349.385 125.376L348.566 124.998C348.63 124.87 348.758 124.685 348.815 124.557L349.571 124.934ZM349.193 125.689C349.129 125.882 349.065 126.067 349.008 126.259L348.252 126.01H348.188C348.252 125.753 348.381 125.568 348.438 125.319L349.193 125.689ZM348.936 126.572C348.872 126.701 348.872 126.829 348.808 127.014L347.989 126.886C348.053 126.701 348.053 126.508 348.117 126.316V126.38L348.936 126.572ZM348.808 127.149L348.053 127.085V127.021L348.808 127.149ZM348.808 127.335C348.744 127.52 348.744 127.712 348.744 127.904H347.925C347.925 127.655 347.925 127.463 347.989 127.213L348.808 127.335ZM348.751 128.282C348.751 128.41 348.751 128.595 348.815 128.723L347.932 128.788C347.932 128.595 347.932 128.474 347.932 128.282H348.751ZM348.808 129.037C348.872 129.229 348.872 129.479 348.936 129.671L348.117 129.863C348.053 129.614 347.989 129.422 347.989 129.172L348.808 129.037ZM349 129.984C349.065 130.112 349.129 130.241 349.186 130.362L348.366 130.675V130.739C348.302 130.547 348.238 130.362 348.174 130.169H348.238L349 129.984ZM349.257 130.554L348.559 130.867V130.803L349.257 130.554ZM349.314 130.682C349.378 130.875 349.442 131.06 349.563 131.252L348.808 131.694C348.68 131.501 348.616 131.252 348.495 131.06L348.559 130.996L349.314 130.682ZM349.756 131.573C349.82 131.701 349.884 131.822 350.005 131.886L349.25 132.392C349.186 132.264 349.057 132.135 349 131.95L349.756 131.573ZM350.197 132.135C350.326 132.328 350.454 132.456 350.582 132.641L350.012 133.275H349.948C349.82 133.09 349.635 132.897 349.506 132.705L350.197 132.135ZM350.839 132.897C350.96 132.962 351.024 133.09 351.152 133.147L350.646 133.845H350.582C350.454 133.717 350.333 133.588 350.197 133.467L350.839 132.897ZM351.402 133.403C351.594 133.531 351.715 133.595 351.908 133.717L351.53 134.479H351.466C351.273 134.351 351.088 134.229 350.896 134.037L351.402 133.403ZM352.221 133.909C352.349 133.973 352.47 134.037 352.599 134.101L352.285 134.856C352.093 134.792 351.907 134.728 351.779 134.607L352.221 133.909ZM352.919 134.222C353.112 134.286 353.297 134.351 353.489 134.415L353.304 135.234C353.048 135.17 352.798 135.106 352.606 135.041L352.919 134.222ZM353.618 134.479L353.489 135.17H353.425L353.618 134.479ZM353.803 134.543C353.931 134.543 354.116 134.607 354.245 134.607L354.116 135.426C353.924 135.426 353.739 135.362 353.61 135.362L353.803 134.543ZM354.373 134.664H354.437L354.309 135.355L354.373 134.664ZM354.565 134.664C354.757 134.664 355.007 134.728 355.199 134.728V135.547C354.943 135.547 354.693 135.547 354.437 135.483L354.565 134.664ZM355.513 134.728C355.641 134.728 355.826 134.728 355.955 134.664L356.083 135.483V135.547C355.89 135.547 355.705 135.547 355.513 135.547V134.728ZM356.332 134.664C356.525 134.6 356.71 134.6 356.902 134.536L357.095 135.355C356.902 135.419 356.653 135.419 356.396 135.483L356.332 134.664ZM357.095 134.479L357.28 135.17H357.216L357.095 134.479ZM357.216 134.415C357.344 134.415 357.472 134.351 357.657 134.286L357.971 135.049V135.113C357.778 135.177 357.657 135.241 357.465 135.241L357.216 134.415ZM357.786 134.222H357.85L358.099 134.92L357.786 134.222ZM357.978 134.158C358.17 134.094 358.356 133.966 358.484 133.909L358.926 134.607V134.671C358.733 134.735 358.484 134.863 358.292 134.984V134.92L357.978 134.158ZM358.797 133.717C358.926 133.652 359.054 133.588 359.175 133.467L359.681 134.165C359.553 134.286 359.367 134.351 359.239 134.479L358.797 133.717ZM359.432 133.275C359.624 133.147 359.745 133.026 359.873 132.897L360.507 133.467C360.315 133.652 360.13 133.845 359.937 133.973L359.432 133.275ZM360.13 132.641C360.251 132.513 360.315 132.392 360.379 132.328L361.077 132.833C361.013 132.962 360.885 133.09 360.764 133.211L360.13 132.641ZM360.628 132.014C360.757 131.886 360.885 131.701 360.942 131.509L361.697 131.95C361.569 132.199 361.448 132.392 361.32 132.584H361.256L360.628 132.014ZM361.142 131.252C361.206 131.124 361.27 130.996 361.327 130.875L362.153 131.188C362.025 131.373 361.961 131.509 361.897 131.694H361.833L361.142 131.252ZM361.455 130.554C361.519 130.362 361.64 130.177 361.64 129.984L362.467 130.177H362.531C362.403 130.426 362.339 130.682 362.282 130.867L361.455 130.554ZM361.769 129.671C361.769 129.543 361.833 129.357 361.833 129.229L362.716 129.357C362.652 129.486 362.652 129.671 362.588 129.863L361.769 129.671ZM361.897 129.037L362.659 129.165H362.595L361.897 129.037ZM361.897 128.852C361.961 128.667 361.961 128.474 361.961 128.282H362.787C362.787 128.531 362.787 128.723 362.723 128.973L361.897 128.852ZM361.961 127.904C361.961 127.783 361.961 127.655 361.897 127.527L362.78 127.399C362.78 127.527 362.78 127.712 362.78 127.904H361.961ZM361.897 127.335V127.27L362.659 127.206V127.27L361.897 127.335ZM361.897 127.149C361.833 126.957 361.833 126.772 361.769 126.58L362.595 126.387V126.323C362.659 126.572 362.723 126.829 362.723 127.085L361.897 127.149ZM361.704 126.259C361.64 126.067 361.576 125.946 361.512 125.817L362.338 125.504C362.403 125.696 362.467 125.817 362.467 126.01L361.704 126.259ZM361.455 125.625L362.153 125.312V125.376L361.455 125.625ZM361.391 125.504C361.327 125.319 361.263 125.126 361.142 124.934L361.84 124.557H361.904C362.032 124.749 362.096 124.998 362.224 125.191L361.391 125.504ZM360.949 124.678C360.885 124.55 360.821 124.428 360.757 124.3L361.391 123.795C361.519 123.923 361.64 124.108 361.704 124.236L360.949 124.678ZM360.507 123.987C360.379 123.866 360.251 123.738 360.13 123.545L360.757 122.975C360.885 123.168 361.07 123.353 361.198 123.481V123.545L360.507 123.987ZM359.873 123.353C359.809 123.225 359.681 123.104 359.553 123.04L360.059 122.349C360.187 122.477 360.372 122.598 360.5 122.726L359.873 123.353ZM359.432 122.911L359.937 122.341L359.496 122.911H359.432ZM359.303 122.847C359.111 122.719 358.99 122.591 358.797 122.47L359.239 121.772C359.431 121.9 359.617 122.028 359.809 122.156L359.303 122.847ZM358.484 122.341C358.356 122.213 358.234 122.149 358.106 122.092L358.42 121.33C358.612 121.394 358.733 121.458 358.926 121.579L358.484 122.341ZM357.786 121.964C357.6 121.9 357.408 121.836 357.216 121.772L357.472 120.953C357.665 121.017 357.914 121.138 358.106 121.202L357.786 121.964ZM356.902 121.708C356.774 121.643 356.589 121.643 356.46 121.579L356.589 120.76C356.781 120.824 356.966 120.824 357.095 120.888L356.902 121.708ZM356.332 121.586H356.268L356.396 120.831L356.332 121.586ZM356.147 121.586C355.954 121.522 355.705 121.522 355.513 121.522V120.703C355.762 120.703 356.019 120.703 356.268 120.703L356.147 121.586ZM352.285 122.47C352.478 122.341 352.599 122.277 352.791 122.156H352.855L353.047 122.092C353.24 122.028 353.361 121.964 353.553 121.9H353.618L353.746 121.836H353.874C354.066 121.772 354.252 121.772 354.444 121.708H354.508H354.7H354.765V121.643C354.893 121.643 355.078 121.643 355.206 121.643V124.3C354.636 124.364 354.066 124.485 353.625 124.742L352.285 122.47ZM355.513 121.643C355.705 121.643 355.89 121.643 356.083 121.708H356.147H356.332H356.396C356.589 121.772 356.71 121.772 356.838 121.836H356.902L357.095 121.9H357.159C357.344 121.964 357.536 122.028 357.729 122.092V122.156H357.793C357.857 122.156 357.921 122.22 357.985 122.22L358.049 122.284C358.178 122.284 358.299 122.413 358.427 122.477L357.102 124.749C356.596 124.5 356.09 124.371 355.52 124.307V121.643H355.513ZM361.013 125.062C361.142 125.255 361.206 125.44 361.263 125.632L361.327 125.696C361.327 125.76 361.327 125.825 361.391 125.825V125.889C361.455 126.074 361.519 126.33 361.583 126.58C361.711 127.021 361.769 127.463 361.769 127.968H359.111C359.111 127.399 358.926 126.829 358.733 126.387L361.013 125.062ZM361.769 128.282C361.769 128.474 361.769 128.659 361.704 128.852C361.704 129.108 361.64 129.357 361.576 129.614C361.448 130.184 361.255 130.682 361.006 131.188L358.669 129.863C358.926 129.357 359.047 128.852 359.111 128.282H361.769ZM360.821 131.444C360.757 131.637 360.628 131.822 360.507 132.014L360.379 132.142L360.315 132.207C360.187 132.335 360.13 132.463 360.066 132.52L359.937 132.584L359.873 132.712L359.745 132.776H359.809C359.617 132.905 359.489 133.026 359.367 133.154H359.303V133.218L359.239 133.282C359.047 133.41 358.926 133.474 358.733 133.595L357.408 131.259C357.6 131.131 357.85 130.946 358.042 130.753C358.234 130.561 358.42 130.376 358.548 130.12L360.821 131.444ZM358.42 133.781C358.291 133.845 358.106 133.966 357.914 134.03V133.966L357.786 134.03L357.722 134.094L357.593 134.158C357.465 134.158 357.337 134.222 357.209 134.279H357.144C357.08 134.279 356.952 134.343 356.888 134.343H356.824C356.567 134.408 356.382 134.472 356.133 134.472H356.004C355.812 134.536 355.691 134.536 355.498 134.536V131.879C356.068 131.815 356.574 131.694 357.08 131.437L358.42 133.781ZM355.199 134.543C355.007 134.543 354.814 134.543 354.629 134.479C354.565 134.479 354.501 134.479 354.437 134.479H354.373H354.309C354.116 134.415 353.995 134.415 353.867 134.351C353.553 134.286 353.24 134.165 352.919 134.037H352.855C352.67 133.973 352.478 133.852 352.285 133.788L353.61 131.452C354.116 131.708 354.622 131.829 355.192 131.893V134.543H355.199ZM351.972 133.588C351.843 133.524 351.658 133.396 351.466 133.275H351.53L351.466 133.211L351.273 133.147V133.083H351.209C351.145 132.954 351.017 132.89 350.896 132.769H350.96L350.896 132.705L350.768 132.577L350.639 132.513C350.511 132.385 350.39 132.264 350.262 132.071L350.133 131.879L350.069 131.815C350.005 131.687 349.941 131.565 349.877 131.437H349.813L352.15 130.112C352.335 130.362 352.463 130.554 352.72 130.746C352.912 130.939 353.097 131.124 353.354 131.316L351.972 133.588ZM349.699 131.188C349.571 130.996 349.506 130.81 349.442 130.554H349.378C349.314 130.362 349.25 130.112 349.186 129.92C349.122 129.792 349.122 129.728 349.122 129.607C348.993 129.165 348.929 128.723 348.929 128.275H351.587C351.587 128.845 351.779 129.35 352.029 129.856L349.699 131.188ZM348.936 127.968C348.936 127.783 348.936 127.527 349 127.342C349 127.213 349 127.149 349 127.028C349.065 126.9 349.065 126.715 349.129 126.587C349.129 126.458 349.129 126.394 349.193 126.337V126.273C349.257 126.081 349.321 125.896 349.385 125.768L349.449 125.639V125.575C349.449 125.511 349.513 125.511 349.513 125.447C349.578 125.326 349.642 125.198 349.706 125.069L352.043 126.394C351.794 126.9 351.601 127.406 351.601 127.976H348.936V127.968ZM363.92 119.499H355.384C360.066 119.499 363.92 123.353 363.92 128.097V119.499ZM357.216 120.953H357.28L357.095 121.708L357.216 120.953ZM360.507 122.911H360.572L360.066 123.481L360.001 123.417L360.507 122.911ZM360.572 133.275L360.507 133.339L360.001 132.769H360.066L360.572 133.275ZM350.197 133.339L350.133 133.275L350.639 132.769H350.703L350.197 133.339ZM353.425 120.953H353.489L353.618 121.708L353.425 120.953ZM361.263 123.666L360.628 124.172V124.108L361.263 123.666ZM352.477 134.92L352.413 134.856L352.727 134.165L352.477 134.92ZM350.775 133.909V133.845L351.281 133.275L350.775 133.909ZM350.96 122.213V122.149L351.402 122.783V122.847L350.96 122.213ZM352.606 121.266L352.926 121.964L352.862 122.028L352.606 121.266ZM355.384 119.499H346.785V128.097C346.792 123.353 350.646 119.499 355.384 119.499ZM346.792 128.09V136.687H355.392C350.646 136.687 346.792 132.833 346.792 128.09ZM355.384 136.687H363.92V128.09C363.92 132.833 360.066 136.687 355.384 136.687ZM355.384 136.245C350.896 136.245 347.226 132.577 347.226 128.09C347.226 123.666 350.896 120.005 355.384 120.005C359.809 120.005 363.478 123.666 363.478 128.09C363.478 132.577 359.809 136.245 355.384 136.245ZM362.595 135.739C362.217 135.739 361.961 135.49 361.961 135.049C361.961 134.735 362.217 134.479 362.595 134.479C362.909 134.479 363.229 134.728 363.229 135.049C363.222 135.483 362.909 135.739 362.595 135.739ZM362.595 121.586C362.217 121.586 361.961 121.273 361.961 120.953C361.961 120.575 362.217 120.319 362.595 120.319C362.909 120.319 363.229 120.568 363.229 120.953C363.222 121.266 362.909 121.586 362.595 121.586ZM348.245 121.586C347.868 121.586 347.611 121.273 347.611 120.953C347.611 120.575 347.868 120.319 348.245 120.319C348.623 120.319 348.879 120.568 348.879 120.953C348.872 121.266 348.623 121.586 348.245 121.586ZM348.245 135.739C347.868 135.739 347.611 135.49 347.611 135.049C347.611 134.735 347.868 134.479 348.245 134.479C348.623 134.479 348.879 134.728 348.879 135.049C348.872 135.483 348.623 135.739 348.245 135.739ZM364.17 119.243V136.936H346.535V119.243H364.17ZM364.234 117.348H363.037V118.609H364.234V117.348ZM347.611 117.348H346.414V118.609H347.611V117.348ZM349.129 117.348H347.925V118.609H349.129V117.348ZM350.646 117.348H349.442V118.609H350.646V117.348ZM352.1 117.348H350.96V118.609H352.1V117.348ZM353.618 117.348H352.413V118.609H353.618V117.348ZM355.135 117.348H353.931V118.609H355.135V117.348ZM356.646 117.348H355.449V118.609H356.646V117.348ZM358.17 117.348H356.966V118.609H358.17V117.348ZM359.681 117.348H358.484V118.609H359.681V117.348ZM361.198 117.348H360.001V118.609H361.198V117.348ZM362.716 117.348H361.512V118.609H362.716V117.348ZM345.716 138.774H345.972V117.348H345.716V138.774ZM344.448 138.774H344.761V117.348H344.448V138.774ZM345.082 138.774H345.395V117.348H345.082V138.774ZM364.74 138.774H365.117V117.348H364.74V138.774ZM366.008 138.774H366.321V117.348H366.008V138.774ZM365.374 138.774H365.687V117.348H365.374V138.774Z" fill="#CCCED0"/>
<path fill-rule="evenodd" clip-rule="evenodd" d="M599.644 136.879V135.996L597.05 134.735V139.094L599.644 136.879ZM542.566 113.367H561.468V118.866H542.566V113.367ZM561.461 119.749V128.154H542.558V119.749H561.461ZM561.461 129.486V144.586H542.558V129.486H561.461ZM547.368 115.076H550.588V115.767H547.368V115.076ZM558.433 122.47V126.323H555.398V122.47C555.398 121.772 556.16 121.202 556.915 121.202C557.799 121.202 558.433 121.772 558.433 122.47ZM553.624 122.47V126.323H550.588V122.47C550.588 121.772 551.222 121.202 552.106 121.202C552.925 121.202 553.624 121.772 553.624 122.47ZM548.757 122.47V126.323H545.722V122.47C545.722 121.772 546.356 121.202 547.24 121.202C548.059 121.202 548.757 121.772 548.757 122.47ZM553.495 133.717H556.716V134.351H553.495V133.717ZM549.512 133.845H552.733V134.479H549.512V133.845ZM551.792 134.664H555.013V135.355H551.792V134.664ZM553.688 135.868H556.908V136.566H553.688V135.868ZM549.897 135.868H553.118V136.566H549.897V135.868ZM547.432 142.314H550.588V143.005H547.432V142.314ZM545.85 141.488H549.078V142.186H545.85V141.488ZM544.268 140.604H547.489V141.238H544.268V140.604ZM556.531 140.412H559.751V141.11H556.531V140.412ZM554.699 114.314H557.92V115.012H554.699V114.314ZM549.641 116.658H552.861V117.356H549.641V116.658ZM517.842 162.536H549.833V187.558H517.842V162.536ZM549.833 188.633V215.422H517.842V188.633H549.833ZM541.361 208.413H546.798V209.553H541.361V208.413ZM536.239 196.974H541.675V198.114H536.239V196.974ZM529.605 197.231H535.042V198.37H529.605V197.231ZM533.396 198.684H538.832V199.816H533.396V198.684ZM536.559 200.707H541.996V201.846H536.559V200.707ZM530.175 200.707H535.547V201.846H530.175V200.707ZM525.872 211.633H531.308V212.773H525.872V211.633ZM523.285 210.18H528.722V211.32H523.285V210.18ZM520.692 208.663H526.128V209.867H520.692V208.663ZM528.152 178.013V184.524H523.029V178.013C523.029 176.81 524.169 175.798 525.622 175.798C527.012 175.805 528.152 176.817 528.152 178.013ZM544.71 178.013V184.524H539.587V178.013C539.587 176.81 540.663 175.798 542.117 175.798C543.513 175.805 544.71 176.817 544.71 178.013ZM536.431 178.013V184.524H531.308V178.013C531.308 176.81 532.448 175.798 533.837 175.798C535.291 175.805 536.431 176.817 536.431 178.013ZM525.808 165.506H531.244V166.638H525.808V165.506ZM538.326 164.174H543.763V165.313H538.326V164.174ZM529.662 168.091H535.099V169.295H529.662V168.091ZM517.842 171.126H549.833V172.265H517.842V171.126ZM552.106 100.354L545.786 105.66H558.811L552.106 100.354ZM557.542 105.852V112.932H547.111V105.852H557.542ZM551.158 108.566H553.303V106.479H551.158V108.566ZM606.406 131.445L597.492 138.966H615.953L606.406 131.445ZM613.93 139.472V149.522H619.558V193.192H593.068V149.522H599.452V139.472H613.93ZM605.08 142.877H608.051V139.906H605.08V142.877ZM599.708 151.98H604.197V152.863H599.708V151.98ZM615.319 162.343V167.65H611.08V162.343C611.08 161.332 611.963 160.506 613.167 160.506C614.307 160.513 615.319 161.332 615.319 162.343ZM608.493 162.343V167.65H604.254V162.343C604.254 161.332 605.201 160.506 606.341 160.506C607.481 160.513 608.493 161.332 608.493 162.343ZM601.667 162.343V167.65H597.428V162.343C597.428 161.332 598.376 160.506 599.516 160.506C600.72 160.513 601.667 161.332 601.667 162.343ZM608.308 177.956H612.797V178.904H608.308V177.956ZM602.807 178.142H607.296V179.089H602.807V178.142ZM605.964 179.345H610.517V180.357H605.964V179.345ZM608.621 181.048H613.11V181.995H608.621V181.048ZM603.249 181.048H607.802V181.995H603.249V181.048ZM599.772 190.086H604.261V191.034H599.772V190.086ZM597.62 188.883H602.109V189.83H597.62V188.883ZM595.469 187.686H599.957V188.633H595.469V187.686ZM612.604 187.43H617.093V188.313H612.604V187.43ZM610.011 150.904H614.5V151.787H610.011V150.904ZM602.929 154.131H607.417V155.078H602.929V154.131ZM593.068 156.595H619.558V157.856H593.068V156.595ZM593.068 170.242H619.558V172.899H593.068V170.242ZM533.902 140.669L523.093 149.707H545.473L533.902 140.669ZM543.064 150.213V161.652H525.494V150.213H543.064ZM532.32 154.508H535.925V150.904H532.32V154.508ZM550.652 180.164L551.536 179.723V186.482L552.989 185.848V179.089L556.025 177.636V184.395L557.414 183.704V176.945L560.449 175.492V182.251L561.903 181.553V174.794L564.938 173.341V180.1L566.327 179.409V172.65L569.363 171.197V177.956L570.816 177.322V170.499L573.851 169.046V175.805L575.241 175.171V168.412L578.276 166.895V173.654L579.73 173.02V166.261L582.701 164.808V171.567L584.154 170.869V164.11L587.189 162.657V169.416L588.579 168.718V161.959L591.614 160.506V167.272L592.248 167.023V189.773L550.652 209.745V180.164ZM597.05 139.087V140.476L595.853 139.906V134.094L593.196 132.826V138.703L591.999 138.069V132.257L589.405 130.989V136.865L588.137 136.231V130.419L585.608 129.158V135.034L584.347 134.4V128.588L581.753 127.392V133.14L580.556 132.57V126.758L577.898 125.49V131.302L576.694 130.732V124.92L574.101 123.652V129.464L572.904 128.895V123.082L570.246 121.815V127.627L569.042 127.057V121.238L566.449 119.977V125.789L565.187 125.219V119.407L562.658 118.146V123.987L562.345 123.866V143.454L592.248 157.799V148.703H598.946V139.087H597.05Z" fill="#CCCED0"/>
<path fill-rule="evenodd" clip-rule="evenodd" d="M254.559 112.106L253.547 121.586L219.981 117.925L220.993 108.445L254.559 112.106ZM227.819 198.619C245.332 198.619 260.437 205.571 266.572 215.429H188.945C195.201 205.571 210.249 198.619 227.819 198.619ZM212.899 173.027L248.553 176.945L248.367 179.096L212.65 175.178L212.899 173.027ZM226.679 93.4584L252.343 96.2363L252.535 94.3417L226.871 91.5566L226.679 93.4584ZM220.295 105.218L256.012 109.072L255.756 111.287L220.102 107.369L220.295 105.218ZM218.841 118.737L254.495 122.655L254.302 124.87L218.585 120.952L218.841 118.737ZM217.388 132.328L253.041 136.245L252.785 138.396L217.131 134.543L217.388 132.328ZM215.87 145.854L251.588 149.771L251.274 151.986L215.621 148.069L215.87 145.854ZM214.417 159.437L250.07 163.354L249.814 165.57L214.16 161.652L214.417 159.437ZM248.994 107.683L250.198 96.8133L228.645 94.477L227.441 105.346L248.994 107.683ZM234.331 99.8476L233.953 103.701L230.227 103.323L230.605 99.4701C230.733 98.3945 231.681 97.5754 232.692 97.6965C233.697 97.8247 234.459 98.772 234.331 99.8476ZM247.163 101.301L246.721 105.154L242.995 104.712L243.437 100.859C243.565 99.7835 244.513 99.0285 245.524 99.1495C246.529 99.2136 247.291 100.161 247.163 101.301ZM240.779 100.603L240.337 104.456L236.611 104.014L237.053 100.161C237.117 99.0854 238.065 98.2663 239.14 98.4586C240.145 98.5156 240.843 99.463 240.779 100.603ZM224.47 110.717L223.779 116.971L221.563 116.721L222.261 110.468C222.325 109.962 222.831 109.584 223.465 109.641C224.092 109.706 224.534 110.147 224.47 110.717ZM246.151 168.54L245.389 174.801L243.237 174.544L243.936 168.291C244 167.785 244.506 167.407 245.14 167.471C245.71 167.592 246.151 168.034 246.151 168.54ZM243.052 168.155L242.354 174.48L240.145 174.224L240.843 167.97C240.907 167.464 241.413 167.087 242.047 167.151C242.674 167.208 243.116 167.714 243.052 168.155ZM239.96 167.906L239.262 174.103L237.11 173.91L237.744 167.592C237.808 167.087 238.378 166.766 239.005 166.837C239.575 166.894 240.024 167.336 239.96 167.906ZM236.925 167.528L236.226 173.782L234.018 173.533L234.716 167.279C234.78 166.773 235.286 166.453 235.913 166.453C236.547 166.581 236.989 167.023 236.925 167.528ZM233.825 167.151L233.127 173.469L230.975 173.22L231.609 166.966C231.673 166.46 232.243 166.082 232.813 166.139C233.448 166.196 233.889 166.702 233.825 167.151ZM230.79 166.894L230.092 173.084L227.876 172.892L228.51 166.574C228.574 166.068 229.144 165.755 229.771 165.819C230.412 165.883 230.854 166.325 230.79 166.894ZM227.691 166.517L226.999 172.771L224.784 172.521L225.482 166.325C225.546 165.755 226.116 165.441 226.679 165.441C227.313 165.57 227.755 166.011 227.691 166.517ZM224.598 166.196L223.964 172.45L221.691 172.201L222.39 165.94C222.454 165.434 223.024 165.057 223.651 165.121C224.214 165.192 224.662 165.691 224.598 166.196ZM221.563 165.883L220.865 172.137L218.649 171.888L219.347 165.627C219.411 165.121 219.981 164.743 220.551 164.807C221.121 164.872 221.627 165.313 221.563 165.883ZM218.464 165.506L217.83 171.759L215.557 171.503L216.255 165.313C216.319 164.743 216.825 164.43 217.459 164.43C218.086 164.558 218.528 165 218.464 165.506ZM247.605 154.821L246.971 161.075L244.698 160.826L245.396 154.565C245.46 154.059 245.966 153.746 246.6 153.746C247.227 153.874 247.669 154.316 247.605 154.821ZM244.57 154.508L243.814 160.762L241.663 160.512L242.361 154.251C242.425 153.746 242.931 153.368 243.565 153.432C244.128 153.496 244.57 154.002 244.57 154.508ZM241.477 154.187L240.779 160.448L238.563 160.199L239.262 153.881C239.326 153.439 239.832 153.062 240.466 153.126C241.093 153.183 241.542 153.625 241.477 154.187ZM238.442 153.817L237.687 160.071L235.535 159.886L236.169 153.625C236.298 153.055 236.803 152.741 237.43 152.741C238 152.863 238.442 153.304 238.442 153.817ZM235.343 153.496L234.645 159.757L232.436 159.501L233.134 153.247C233.198 152.741 233.704 152.364 234.338 152.421C234.965 152.485 235.407 152.991 235.343 153.496ZM232.243 153.183L231.545 159.437L229.393 159.18L230.028 152.863C230.092 152.421 230.662 152.036 231.232 152.1C231.866 152.172 232.308 152.613 232.243 153.183ZM229.208 152.806L228.51 159.059L226.294 158.867L226.992 152.613C226.992 152.043 227.562 151.73 228.196 151.73C228.831 151.851 229.272 152.293 229.208 152.806ZM226.116 152.485L225.418 158.746L223.266 158.49L223.9 152.236C223.964 151.73 224.534 151.353 225.097 151.481C225.731 151.474 226.18 151.979 226.116 152.485ZM223.017 152.172L222.382 158.433L220.11 158.176L220.808 151.858C220.872 151.417 221.442 151.039 222.069 151.103C222.639 151.16 223.145 151.602 223.017 152.172ZM219.981 151.787L219.283 158.048L217.067 157.856L217.765 151.602C217.83 151.032 218.4 150.719 218.97 150.719C219.54 150.84 220.045 151.288 219.981 151.787ZM249.123 141.11L248.424 147.364L246.216 147.171L246.914 140.854C246.978 140.348 247.484 140.027 248.118 140.091C248.681 140.163 249.187 140.604 249.123 141.11ZM246.03 140.797L245.396 147.057L243.123 146.801L243.822 140.547C243.886 140.042 244.456 139.664 245.026 139.728C245.646 139.785 246.087 140.291 246.03 140.797ZM242.995 140.476L242.297 146.73L240.081 146.481L240.779 140.227C240.843 139.721 241.349 139.343 241.976 139.408C242.546 139.472 242.995 139.913 242.995 140.476ZM239.896 140.098L239.197 146.359L236.982 146.167L237.68 139.913C237.744 139.343 238.25 139.03 238.877 139.094C239.518 139.151 239.96 139.593 239.896 140.098ZM236.86 139.785L236.098 146.039L233.946 145.79L234.58 139.536C234.709 139.03 235.215 138.653 235.842 138.717C236.419 138.774 236.86 139.279 236.86 139.785ZM233.761 139.472L233.063 145.726L230.854 145.469L231.552 139.215C231.616 138.71 232.122 138.325 232.756 138.389C233.383 138.453 233.825 138.959 233.761 139.472ZM230.669 139.151L229.971 145.341L227.819 145.156L228.453 138.902C228.517 138.332 229.087 138.019 229.714 138.076C230.284 138.14 230.726 138.581 230.669 139.151ZM227.634 138.774L226.935 145.027L224.727 144.778L225.425 138.524C225.425 138.019 225.995 137.634 226.629 137.762C227.249 137.826 227.691 138.268 227.634 138.774ZM224.534 138.453L223.836 144.707L221.684 144.458L222.318 138.197C222.382 137.691 222.952 137.313 223.522 137.378C224.157 137.442 224.598 137.947 224.534 138.453ZM221.499 138.14L220.801 144.337L218.528 144.151L219.226 137.89C219.29 137.321 219.86 137.007 220.487 137.071C221.121 137.128 221.563 137.57 221.499 138.14ZM250.576 127.463L249.942 133.652L247.726 133.467L248.424 127.149C248.424 126.644 248.994 126.323 249.564 126.387C250.198 126.451 250.704 126.893 250.576 127.463ZM247.541 127.085L246.843 133.339L244.627 133.09L245.325 126.9C245.389 126.33 245.895 126.017 246.529 126.017C247.099 126.131 247.605 126.572 247.541 127.085ZM244.441 126.701L243.807 133.018L241.534 132.769L242.297 126.508C242.297 126.002 242.867 125.625 243.43 125.753C244.064 125.753 244.506 126.259 244.441 126.701ZM241.413 126.451L240.715 132.712L238.506 132.463L239.205 126.138C239.269 125.696 239.775 125.319 240.409 125.383C240.972 125.44 241.413 125.881 241.413 126.451ZM238.314 126.067L237.616 132.328L235.4 132.078L236.091 125.881C236.155 125.312 236.661 124.998 237.295 124.998C237.936 125.126 238.378 125.568 238.314 126.067ZM235.279 125.753L234.516 132.014L232.365 131.765L232.999 125.504C233.127 124.998 233.633 124.621 234.26 124.749C234.837 124.742 235.279 125.247 235.279 125.753ZM232.179 125.44L231.481 131.701L229.265 131.444L229.963 125.19C230.028 124.685 230.533 124.307 231.168 124.371C231.802 124.428 232.243 124.87 232.179 125.44ZM229.087 125.062L228.389 131.316L226.237 131.06L226.871 124.87C226.999 124.3 227.505 123.98 228.139 123.98C228.702 124.108 229.144 124.557 229.087 125.062ZM226.052 124.742L225.354 130.996L223.138 130.746L223.836 124.492C223.9 123.987 224.406 123.609 225.04 123.73C225.674 123.73 226.116 124.236 226.052 124.742ZM222.952 124.428L222.254 130.682L220.102 130.433L220.737 124.179C220.801 123.673 221.371 123.296 221.941 123.36C222.575 123.417 223.017 123.859 222.952 124.428ZM252.094 113.744L251.395 120.005L249.187 119.749L249.885 113.431C249.949 112.989 250.519 112.612 251.146 112.676C251.716 112.74 252.158 113.181 252.094 113.744ZM248.994 113.367L248.36 119.628L246.144 119.435L246.843 113.181C246.843 112.612 247.413 112.291 247.983 112.291C248.617 112.419 249.123 112.861 248.994 113.367ZM245.966 113.053L245.268 119.307L243.052 119.058L243.75 112.804C243.814 112.298 244.32 111.921 244.954 112.042C245.581 112.042 246.03 112.548 245.966 113.053ZM242.867 112.74L242.233 118.994L239.96 118.744L240.715 112.483C240.715 111.978 241.285 111.6 241.855 111.664C242.489 111.728 242.995 112.17 242.867 112.74ZM239.832 112.355L239.133 118.609L236.925 118.424L237.623 112.163C237.687 111.593 238.193 111.28 238.827 111.28C239.39 111.408 239.832 111.849 239.832 112.355ZM236.732 112.042L236.034 118.296L233.818 118.046L234.516 111.785C234.58 111.28 235.086 110.902 235.72 111.03C236.355 111.03 236.796 111.536 236.732 112.042ZM233.697 111.728L232.999 117.982L230.783 117.733L231.481 111.472C231.545 110.966 232.051 110.589 232.685 110.653C233.255 110.717 233.697 111.159 233.697 111.728ZM230.605 111.344L229.906 117.598L227.691 117.412L228.389 111.151C228.453 110.582 228.959 110.268 229.593 110.332C230.22 110.396 230.669 110.838 230.605 111.344ZM227.569 111.03L226.807 117.284L224.662 117.028L225.297 110.774C225.425 110.268 225.931 109.891 226.558 110.012C227.128 110.019 227.569 110.525 227.569 111.03ZM253.105 125.689L252.094 135.105L218.528 131.437L219.54 122.021L253.105 125.689ZM251.652 139.279L250.576 148.696L217.01 145.027L218.086 135.611L251.652 139.279ZM250.134 152.863L249.123 162.279L215.557 158.611L216.568 149.194L250.134 152.863ZM248.681 166.389L247.605 175.869L214.103 172.201L215.115 162.721L248.681 166.389ZM247.163 179.972L245.011 199.944C244.506 199.816 244 199.688 243.43 199.503L245.076 184.901C245.204 183.448 243.936 182.187 242.169 181.931C240.402 181.738 238.884 182.75 238.756 184.267L237.238 198.299C236.668 198.235 236.162 198.171 235.592 198.107L237.11 184.075C237.238 182.622 235.97 181.297 234.267 181.104C232.557 180.912 230.982 181.924 230.854 183.384L229.272 197.665C228.766 197.601 228.261 197.601 227.819 197.601H227.626L229.208 183.191C229.336 181.738 228.068 180.414 226.365 180.221C224.598 180.029 223.081 181.047 222.888 182.493L221.242 197.914C220.672 197.978 220.102 198.035 219.532 198.099L221.242 182.301C221.435 180.912 220.102 179.523 218.4 179.331C216.69 179.146 215.115 180.15 214.987 181.667L213.027 199.296C212.393 199.424 211.702 199.609 211.068 199.802L213.597 176.297L247.163 179.972Z" fill="#CCCED0"/>
<path fill-rule="evenodd" clip-rule="evenodd" d="M471.066 213.214L446.855 213.463L450.083 209.545L451.287 208.157L452.05 207.209L453.247 205.82L454.002 204.873L455.142 203.548L471.137 184.338L487.261 203.235C487.133 203.363 486.941 203.548 486.82 203.676L497.001 194.196C499.025 195.969 501.048 197.736 503.072 199.438C504.461 197.23 506.862 194.445 509.897 194.766C515.141 194.951 515.904 203.042 515.904 203.042L513.118 203.106L513.182 204.688C514.194 205.699 514.949 206.96 515.398 208.349C515.462 208.413 515.462 208.477 515.526 208.541L515.719 208.79L515.783 208.983C515.911 209.239 515.975 209.488 516.16 209.809L504.967 209.873C508.7 209.873 512.427 209.809 516.16 209.809L515.968 209.496L515.84 209.182L515.776 208.99C515.904 209.246 515.968 209.496 516.153 209.816C516.281 210.194 516.723 211.269 516.787 211.647L522.665 211.903C523.613 212.152 524.119 212.095 524.753 215.187L506.549 215.315C506.613 215.628 497.949 215.187 497.949 215.187L479.488 215.002C479.488 215.002 479.488 213.862 479.36 213.356L471.066 213.214ZM488.579 205.948C488.836 206.013 489.085 206.141 489.399 206.262C489.085 206.141 488.829 206.013 488.579 205.948ZM492.812 207.216C493.061 207.216 493.253 207.216 493.503 207.28C493.253 207.216 493.068 207.216 492.812 207.216ZM496.666 212.964C496.474 212.772 496.225 212.651 495.968 212.523C496.225 212.644 496.481 212.772 496.666 212.964ZM515.505 208.541C515.441 208.477 515.441 208.413 515.377 208.349L515.505 208.541Z" fill="#CCCED0"/>
<path fill-rule="evenodd" clip-rule="evenodd" d="M506.021 170.114V172.008H496.346V182.18H500.521L497.614 183.127V215.422H491.23V183.191L488.259 182.18H492.491V172.008H460.315V182.18H464.554L461.647 183.127V215.422H455.199V183.191L452.356 182.18H456.524V172.008H446.855V170.114H444.262V168.725H456.524V163.226H453.617V161.075C449.634 160.505 445.53 159.814 441.419 158.988V154.308C439.901 154.059 438.32 153.738 436.738 153.361V149.564C434.971 149.251 433.14 148.866 431.366 148.496C431.366 147.356 431.366 146.224 431.366 145.084C461.768 150.205 491.8 149.885 521.447 145.084C521.447 146.224 521.447 147.363 521.447 148.496C519.68 148.873 517.906 149.251 516.075 149.564V153.361C514.557 153.738 512.975 154.059 511.401 154.372V158.988C507.418 159.878 503.307 160.633 499.203 161.203V163.226H496.353V168.725H508.558V170.114H506.021ZM463.229 162.157V163.233H460.322V168.732H473.531V162.663C470.119 162.599 466.706 162.407 463.229 162.157ZM492.498 163.226H489.591V162.214C486.235 162.528 482.765 162.656 479.345 162.72V168.725H492.491V163.226H492.498Z" fill="#CCCED0"/>
<path fill-rule="evenodd" clip-rule="evenodd" d="M332.158 88.5508C330.391 90.1962 330.897 90.0039 326.786 88.8001C323.181 87.6605 324.891 87.283 321.663 89.1135C318.756 90.823 314.011 92.5254 311.802 93.8502C312.629 95.6808 319.704 101.685 321.414 104.15C320.78 104.463 320.274 104.72 319.583 105.033C318.507 105.539 318.763 105.539 317.495 104.784C314.716 103.202 305.803 98.1452 304.029 97.3902C301.692 98.4017 295.493 101.564 293.348 101.436C292.337 101.372 290.691 101.123 291.011 99.8547C291.831 96.7563 297.395 95.0539 301.001 93.4727C302.454 92.8388 302.077 92.9029 302.39 91.3216C302.775 89.6192 305.176 77.2327 305.739 76.5988C305.988 76.4065 307.948 75.5873 308.332 75.395C308.525 76.5347 308.646 77.7954 308.71 78.9992L309.344 86.0151C309.344 87.1548 309.536 88.4796 309.722 89.5551C311.368 88.736 313.006 88.038 314.716 87.2189C323.188 83.1731 321.67 85.894 323.63 81.3426C324.77 78.814 324.77 77.2968 327.235 77.6743C326.786 82.7386 328.175 85.894 332.158 88.5508ZM260.224 39.5745C262.504 40.2725 261.991 40.3366 265.155 37.4234C267.934 34.8948 266.231 35.2723 269.957 35.5928C273.242 35.8421 278.3 35.4005 280.894 35.6569C280.958 37.6157 277.103 46.0847 276.598 49.0549C277.296 49.0549 277.859 49.0549 278.621 49.0549C279.825 49.0549 279.569 49.1831 280.452 47.9794C282.283 45.3226 288.104 36.9177 289.43 35.5287C292.023 35.4646 298.913 35.5928 300.808 34.6455C301.692 34.1398 303.081 33.1283 302.262 32.1169C300.174 29.7165 294.424 30.5356 290.506 30.6638C288.924 30.6638 289.309 30.5997 288.29 29.339C287.214 27.9501 279.754 17.7716 278.999 17.4582C278.685 17.3941 276.533 17.4582 276.156 17.4582C276.412 18.5978 276.854 19.7304 277.296 20.87L279.761 27.5013C280.203 28.5128 280.645 29.8376 280.965 30.849C279.134 30.7849 277.296 30.849 275.401 30.849C266.045 30.849 268.639 32.6796 264.841 29.396C262.761 27.5654 262.127 26.2335 260.039 27.6295C262.561 31.9958 262.69 35.4646 260.224 39.5745ZM259.213 33.1283C260.16 33.0001 260.481 34.4532 259.398 34.6455L257.88 34.8378C256.933 35.0301 256.548 33.513 257.624 33.3206L259.213 33.1283ZM124.949 134.244C124.443 135.255 123.054 134.493 123.496 133.61L123.873 132.791C124.379 131.843 125.768 132.598 125.263 133.489L124.949 134.244ZM127.35 129.251C126.844 130.198 125.455 129.507 125.961 128.552L126.659 127.164C127.101 126.216 128.49 126.971 128.048 127.854L127.35 129.251ZM130.193 123.688C129.751 124.571 128.298 123.937 128.804 122.99L129.559 121.601C130.001 120.717 131.39 121.351 130.948 122.363L130.193 123.688ZM133.228 118.253C132.658 119.2 131.333 118.317 131.839 117.491L132.658 116.102C133.228 115.154 134.489 116.038 133.984 116.857L133.228 118.253ZM136.385 112.882C135.815 113.766 134.489 112.946 135.059 112.063L135.879 110.738C136.385 109.855 137.774 110.674 137.204 111.557L136.385 112.882ZM139.741 107.576C139.235 108.395 137.845 107.64 138.415 106.757L139.299 105.432C139.805 104.613 141.194 105.368 140.56 106.315L139.741 107.576ZM143.218 102.455C142.583 103.274 141.386 102.326 141.956 101.507L142.84 100.246C143.474 99.4273 144.735 100.375 144.101 101.194L143.218 102.455ZM146.88 97.3973C146.246 98.2165 145.049 97.2691 145.676 96.45L146.623 95.1893C147.257 94.3702 148.454 95.3816 147.82 96.1366L146.88 97.3973ZM150.549 92.6607C149.979 92.9741 149.288 92.4684 149.345 91.8416C149.281 91.4641 149.594 90.9583 150.043 90.8942L150.549 90.2603C151.183 89.5053 152.444 90.4526 151.753 91.2717L151.625 91.4641L151.874 91.5282C152.886 91.9057 152.252 93.3587 151.304 92.9812L150.549 92.6607ZM154.781 87.7317C154.019 88.4938 152.95 87.4183 153.641 86.6562L154.653 85.5165C155.408 84.6974 156.484 85.8299 155.793 86.528L154.781 87.7317ZM159.021 83.1161C158.323 83.8712 157.126 82.8027 157.881 82.0406L158.957 80.9009C159.655 80.1459 160.788 81.2143 160.097 81.9765L159.021 83.1161ZM163.381 78.6929C162.562 79.3909 161.55 78.1872 162.305 77.5532L163.381 76.4777C164.201 75.7155 165.212 76.9193 164.521 77.6173L163.381 78.6929ZM167.934 74.3978C167.172 75.0959 166.103 73.9562 166.858 73.2582L168.062 72.1826C168.818 71.4846 169.894 72.6884 169.074 73.3864L167.934 74.3978ZM172.608 70.3521C171.91 70.986 170.841 69.8464 171.661 69.1554L172.865 68.144C173.748 67.446 174.632 68.7779 173.812 69.3478L172.608 70.3521ZM177.539 66.4345C176.655 67.0685 175.772 65.8006 176.591 65.2308L177.795 64.2835C178.679 63.6495 179.562 64.9174 178.743 65.4872L177.539 66.4345ZM182.533 62.7663C181.778 63.3361 180.766 62.1324 181.65 61.5056C182.092 61.1922 182.533 60.8716 182.975 60.6223C183.73 60.0525 184.742 61.2563 183.859 61.8831C183.417 62.1965 182.975 62.4529 182.533 62.7663ZM187.72 59.2904C186.837 59.8602 186.074 58.4713 186.901 57.9655L188.226 57.1464C189.11 56.5766 189.936 57.9655 189.046 58.4713L187.72 59.2904ZM193.028 56.0709C192.209 56.5766 191.326 55.2517 192.273 54.6819L193.663 53.9269C194.482 53.4212 195.365 54.746 194.418 55.3159L193.028 56.0709ZM198.529 53.0366C197.517 53.5423 196.883 52.0892 197.767 51.6476L199.156 50.8926C200.104 50.451 200.802 51.904 199.918 52.3456L198.529 53.0366ZM204.094 50.2587C203.21 50.7003 202.448 49.3113 203.395 48.8056C203.901 48.6133 204.343 48.364 204.849 48.1717C205.732 47.7301 206.431 49.119 205.483 49.5606C205.041 49.8099 204.535 50.0022 204.094 50.2587ZM209.779 47.666C208.768 48.0435 208.262 46.5904 209.145 46.2129L210.599 45.579C211.61 45.2015 212.116 46.7115 211.169 47.032L209.779 47.666ZM215.529 45.3226C214.582 45.7001 214.012 44.247 214.959 43.8695L216.477 43.2997C217.36 42.9222 217.994 44.3752 216.983 44.7527L215.529 45.3226ZM221.407 43.1786C220.46 43.492 219.89 42.039 220.901 41.7256C221.407 41.5332 221.913 41.348 222.419 41.2198C223.303 40.8423 223.873 42.2954 222.861 42.6729C222.362 42.8581 221.913 42.9863 221.407 43.1786ZM227.35 41.2839C226.274 41.5332 225.96 40.0232 226.908 39.7668L228.425 39.3252C229.437 39.0759 229.815 40.5859 228.803 40.8423L227.35 41.2839ZM233.356 39.5745C232.344 39.8309 231.967 38.3137 232.978 38.0573L234.496 37.6798C235.444 37.4305 235.885 38.9405 234.874 39.197L233.356 39.5745ZM239.426 38.1214C238.479 38.3707 237.973 36.8607 239.049 36.5402L240.631 36.2268C241.706 36.0344 241.899 37.6157 240.944 37.7439L239.426 38.1214ZM245.497 36.7966C244.485 36.9889 244.236 35.4717 245.248 35.2794L246.765 35.0301C247.841 34.8378 248.09 36.355 247.079 36.5473L245.497 36.7966ZM251.689 35.721C250.677 35.9133 250.363 34.3962 251.439 34.2039L252.957 33.9546C253.969 33.7623 254.282 35.3435 253.206 35.5358L251.689 35.721ZM41.1876 96.8916C39.4135 98.537 39.9265 98.3447 35.8154 97.0839C32.2101 96.0084 33.9201 95.5668 30.6925 97.4615C27.7855 99.1068 23.0402 100.873 20.8315 102.198C21.6509 104.029 28.7331 110.033 30.4431 112.498C29.809 112.811 29.3031 113.003 28.612 113.317C27.5361 113.887 27.7926 113.887 26.5244 113.124C23.7456 111.543 14.8322 106.422 13.0581 105.731C10.7211 106.742 4.52237 109.905 2.37774 109.777C1.36599 109.713 -0.279881 109.399 0.0407438 108.131C0.860119 105.033 6.42474 103.331 10.03 101.749C11.4835 101.115 11.1059 101.244 11.4194 99.6624C11.797 97.8959 14.2052 85.5735 14.7681 84.9396C14.9605 84.7473 16.9769 83.864 17.3616 83.7358C17.554 84.8755 17.6822 86.0721 17.7392 87.2758L18.3734 94.3559C18.3734 95.4314 18.5657 96.8204 18.751 97.8318C20.3969 97.0697 22.0356 96.3147 23.7456 95.5597C32.2172 91.5139 30.6355 94.2348 32.659 89.6834C33.799 87.1548 33.7349 85.6376 36.2642 86.0151C35.8154 91.0794 37.2047 94.2419 41.1876 96.8916ZM39.3565 90.6378C38.4089 90.9512 38.7865 92.4043 39.8624 92.155L41.3159 91.6492C42.1994 91.3928 41.8859 89.8828 40.81 90.1321L39.3565 90.6378ZM204.029 124.635C204.849 125.333 205.732 124.065 204.977 123.438L204.343 122.933C203.459 122.235 202.576 123.502 203.331 124.136L204.029 124.635ZM199.662 121.159C200.481 121.793 201.429 120.589 200.674 119.955L199.412 118.944C198.593 118.31 197.645 119.578 198.465 120.205L199.662 121.159ZM194.731 117.37C195.487 118.004 196.498 116.8 195.679 116.109L194.418 115.162C193.598 114.592 192.587 115.796 193.47 116.429L194.731 117.37ZM189.68 113.701C190.563 114.335 191.39 112.946 190.563 112.441L189.238 111.557C188.354 110.924 187.528 112.32 188.354 112.818L189.68 113.701ZM184.493 110.226C185.376 110.795 186.203 109.47 185.376 108.901L184.051 108.082C183.167 107.512 182.284 108.78 183.167 109.349L184.493 110.226ZM179.249 106.878C180.068 107.384 180.952 106.123 180.004 105.553L178.679 104.734C177.859 104.228 176.976 105.489 177.859 106.059L179.249 106.878ZM173.812 103.715C174.824 104.221 175.458 102.832 174.632 102.326L173.242 101.571C172.295 101.066 171.596 102.455 172.487 102.96L173.812 103.715ZM168.376 100.745C169.324 101.187 169.958 99.7977 169.074 99.3561L167.685 98.594C166.737 98.1524 166.039 99.5413 166.987 99.9829L168.376 100.745ZM162.747 97.9672C163.695 98.4088 164.393 97.0198 163.438 96.5141L162.049 95.8802C161.165 95.4386 160.403 96.7634 161.351 97.2691L162.747 97.9672ZM157.126 95.3745C158.137 95.752 158.643 94.2989 157.696 93.9214L156.242 93.2875C155.294 92.91 154.724 94.363 155.672 94.7405L157.126 95.3745ZM145.49 90.823C146.566 91.1364 146.88 89.6192 145.996 89.37L144.479 88.8642C143.403 88.5508 143.089 90.068 143.973 90.3173L145.49 90.823ZM139.548 88.9283C140.496 89.2417 140.938 87.7246 139.99 87.4112L138.472 86.9696C137.461 86.7131 137.019 88.2303 138.031 88.4867L139.548 88.9283ZM133.542 87.2901C134.425 87.5394 134.995 86.0935 133.919 85.7729L132.402 85.3954C131.262 85.1461 131.077 86.7203 132.024 86.9126L133.542 87.2901ZM127.478 85.837C128.49 86.0294 128.74 84.5122 127.792 84.3199L126.21 84.0065C125.198 83.8142 124.885 85.3313 125.89 85.5236L127.478 85.837ZM121.344 84.6974C122.291 84.8897 122.669 83.3726 121.593 83.1161C121.087 83.052 120.517 82.9238 120.011 82.8668C119.064 82.6745 118.686 84.1917 119.762 84.4481C120.268 84.5051 120.838 84.5692 121.344 84.6974ZM115.145 83.7501C116.221 83.8783 116.349 82.297 115.337 82.2329L113.82 82.0406C112.744 81.9124 112.616 83.4936 113.627 83.5577L115.145 83.7501ZM108.953 83.1161C109.965 83.1802 110.158 81.6631 109.082 81.5349L107.5 81.4067C106.552 81.2785 106.303 82.8597 107.436 82.9879L108.953 83.1161ZM102.762 82.6745C103.838 82.7386 103.774 81.1574 102.826 81.1574L101.244 81.0933C100.168 81.0291 100.168 82.6104 101.18 82.6104L102.762 82.6745ZM96.499 82.5463C97.5107 82.5463 97.5749 80.965 96.499 80.965C95.9931 80.965 95.4231 80.965 94.9172 80.965C93.9696 80.965 93.8414 82.5463 94.9172 82.5463C95.4872 82.5463 95.9931 82.5463 96.499 82.5463ZM90.2432 82.6745C91.3832 82.5463 91.1909 81.0291 90.1791 81.0933L88.6615 81.1574C87.5856 81.2215 87.7139 82.8027 88.7256 82.7386L90.2432 82.6745ZM84.0445 82.9879C85.0562 82.9238 84.928 81.3426 83.9162 81.4067L82.3416 81.5349C81.3299 81.599 81.4581 83.1802 82.4699 83.1161L84.0445 82.9879ZM77.8529 83.5577C78.8005 83.4936 78.7364 81.9124 77.6605 82.0406C77.1546 82.1047 76.5846 82.1688 76.0787 82.2329C75.1311 82.297 75.1952 83.8783 76.2711 83.7501C76.777 83.686 77.2829 83.6218 77.8529 83.5577ZM71.6541 84.3769C72.73 84.1846 72.3524 82.6745 71.4047 82.8597L69.823 83.052C68.8112 83.3084 69.1247 84.8256 70.0724 84.6333L71.6541 84.3769ZM65.4625 85.4524C66.4742 85.2601 66.2249 83.686 65.2131 83.8711L63.6314 84.1846C62.6837 84.3769 62.9331 85.894 63.9449 85.7017L65.4625 85.4524ZM59.392 86.6562C60.3396 86.528 60.0902 84.9538 59.0144 85.139L57.4967 85.5165C56.4209 85.7729 56.9267 87.283 57.8744 87.0337L59.392 86.6562ZM53.3215 88.1733C54.3332 87.8599 53.8915 86.3428 52.8797 86.6562L51.3621 87.0337C50.3504 87.283 50.7921 88.8001 51.8039 88.5508L53.3215 88.1733ZM47.2581 89.8187C48.2699 89.5694 47.8922 87.9881 46.8164 88.3015L45.3629 88.7431C44.4152 88.9924 44.7287 90.5096 45.8046 90.2603L47.2581 89.8187ZM330.327 82.297C329.38 82.6104 329.757 84.0635 330.833 83.8142L332.287 83.3084C333.17 83.052 332.921 81.542 331.781 81.8554L330.327 82.297ZM495 116.358C495.82 116.992 496.767 115.724 495.948 115.154L495.314 114.585C494.43 113.887 493.547 115.219 494.302 115.788L495 116.358ZM490.64 112.882C491.466 113.516 492.407 112.248 491.651 111.622L490.383 110.674C489.564 110.04 488.609 111.244 489.436 111.878L490.64 112.882ZM485.709 109.029C486.464 109.663 487.476 108.459 486.657 107.825L485.396 106.878C484.576 106.244 483.565 107.448 484.448 108.139L485.709 109.029ZM480.65 105.425C481.534 105.995 482.36 104.67 481.534 104.1L480.273 103.217C479.325 102.647 478.499 103.979 479.389 104.542L480.65 105.425ZM475.471 101.885C476.354 102.455 477.173 101.13 476.354 100.56L475.029 99.7407C474.145 99.1709 473.319 100.503 474.145 101.066L475.471 101.885ZM470.219 98.537C471.046 99.1068 471.929 97.839 471.046 97.2122L469.657 96.393C468.901 95.8873 467.954 97.148 468.901 97.782L470.219 98.537ZM464.847 95.3745C465.795 95.8802 466.429 94.4912 465.61 94.0496L464.22 93.2305C463.273 92.7889 462.574 94.1778 463.465 94.6195L464.847 95.3745ZM459.347 92.4043C460.294 92.8459 460.993 91.521 460.038 91.0153L458.648 90.3173C457.701 89.8116 457.067 91.2646 457.95 91.7062L459.347 92.4043ZM453.718 89.6264C454.666 90.068 455.364 88.679 454.416 88.2374L453.027 87.5394C452.143 87.0978 451.388 88.4867 452.329 88.9283L453.718 89.6264ZM448.096 87.0337C449.108 87.4112 449.614 85.9581 448.666 85.5806L447.277 84.9467C446.265 84.5692 445.695 86.0863 446.643 86.3997L448.096 87.0337ZM442.282 84.6974C443.23 85.0749 443.857 83.6218 442.852 83.1802L441.399 82.6745C440.451 82.297 439.881 83.7501 440.829 84.1276L442.282 84.6974ZM436.461 82.5463C437.537 82.8597 437.851 81.2856 436.967 81.0292L435.449 80.5234C434.374 80.21 434.06 81.7272 434.944 82.0406L436.461 82.5463ZM430.526 80.5875C431.538 80.9009 431.915 79.3909 430.968 79.1345L429.45 78.6929C428.438 78.3795 427.997 79.8966 429.008 80.1459L430.526 80.5875ZM424.52 78.9493C425.403 79.1986 425.973 77.7455 424.897 77.4321L423.38 77.0546C422.24 76.8053 422.047 78.3795 423.002 78.5718L424.52 78.9493ZM418.449 77.5532C419.461 77.7455 419.71 76.1643 418.763 75.972L417.181 75.6586C416.169 75.4663 415.913 76.9834 416.932 77.1757L418.449 77.5532ZM412.315 76.3566C413.262 76.5489 413.647 75.0318 412.564 74.8394C412.058 74.7112 411.552 74.6471 410.982 74.526C410.099 74.3978 409.657 75.915 410.733 76.1073C411.303 76.1643 411.809 76.2925 412.315 76.3566ZM406.123 75.4093C407.199 75.5375 407.327 74.0203 406.315 73.8921L404.798 73.6998C403.722 73.5716 403.594 75.1528 404.605 75.2169L406.123 75.4093ZM399.924 74.7753C400.936 74.9035 401.121 73.3223 400.052 73.1941L398.471 73.0659C397.523 73.0018 397.267 74.5189 398.407 74.6471L399.924 74.7753ZM393.733 74.3978C394.808 74.3978 394.744 72.8166 393.797 72.8166L392.215 72.7525C391.139 72.7525 391.139 74.2696 392.151 74.3337L393.733 74.3978ZM387.47 74.2055C388.481 74.2055 388.546 72.6884 387.47 72.6243C386.964 72.6243 386.394 72.6243 385.888 72.6243C384.94 72.6243 384.812 74.2055 385.888 74.2055C386.465 74.2055 386.964 74.2055 387.47 74.2055ZM381.214 74.3337C382.354 74.2696 382.162 72.6884 381.15 72.7525L379.632 72.8166C378.556 72.8807 378.685 74.4619 379.696 74.3978L381.214 74.3337ZM375.022 74.6471C376.034 74.583 375.97 73.0018 374.894 73.13L373.312 73.2582C372.301 73.3223 372.429 74.8394 373.441 74.7753L375.022 74.6471ZM368.824 75.2811C369.771 75.1528 369.707 73.5716 368.631 73.6998C368.125 73.7639 367.555 73.828 367.049 73.8921C366.102 73.9562 366.166 75.5375 367.242 75.4093C367.748 75.3452 368.254 75.2811 368.824 75.2811ZM362.632 76.0361C363.708 75.8438 363.323 74.3337 362.383 74.5189L360.801 74.7682C359.789 74.9605 360.103 76.4777 361.05 76.2854L362.632 76.0361ZM356.433 77.1116C357.445 76.9193 357.196 75.4093 356.184 75.5945L354.609 75.8438C353.662 76.0361 353.911 77.6102 354.923 77.425L356.433 77.1116ZM350.37 78.3795C351.317 78.1872 351.068 76.613 349.992 76.8623L348.475 77.1757C347.399 77.4891 347.905 78.9493 348.852 78.6929L350.37 78.3795ZM344.299 79.8325C345.311 79.5191 344.869 78.0661 343.922 78.3154L342.34 78.6929C341.328 79.0063 341.77 80.4593 342.782 80.21L344.299 79.8325ZM338.293 81.4708C339.241 81.2215 338.863 79.7043 337.851 79.9536L336.334 80.3952C335.386 80.6445 335.699 82.2258 336.775 81.9124L338.293 81.4708Z" fill="#CCCED0"/>
</svg>
